ISO-10303-21;
HEADER;
/* Generated by software containing ST-Developer
 * from STEP Tools, Inc. (www.steptools.com) 
 */

FILE_DESCRIPTION(
/* description */ (''),
/* implementation_level */ '2;1');

FILE_NAME(
/* name */ 'shackswitch-r4-front-panel.step',
/* time_stamp */ '2026-05-20T00:23:43-04:00',
/* author */ (''),
/* organization */ (''),
/* preprocessor_version */ 'ST-DEVELOPER v20.1',
/* originating_system */ 'Autodesk Translation Framework v15.8.0.0',
/* authorisation */ '');

FILE_SCHEMA (('AUTOMOTIVE_DESIGN { 1 0 10303 214 3 1 1 }'));
ENDSEC;

DATA;
#10=MECHANICAL_DESIGN_GEOMETRIC_PRESENTATION_REPRESENTATION('',(#13),#2095);
#11=SHAPE_REPRESENTATION_RELATIONSHIP('SRR','None',#2102,#12);
#12=ADVANCED_BREP_SHAPE_REPRESENTATION('',(#14),#2094);
#13=STYLED_ITEM('',(#2111),#14);
#14=MANIFOLD_SOLID_BREP('Body1',#1241);
#15=CONICAL_SURFACE('',#1320,1.,1.02974425867665);
#16=CONICAL_SURFACE('',#1324,1.,1.02974425867665);
#17=CONICAL_SURFACE('',#1328,1.,1.02974425867665);
#18=CONICAL_SURFACE('',#1332,1.,1.02974425867665);
#19=FACE_BOUND('',#458,.T.);
#20=FACE_BOUND('',#477,.T.);
#21=FACE_BOUND('',#478,.T.);
#22=FACE_BOUND('',#479,.T.);
#23=FACE_BOUND('',#480,.T.);
#24=FACE_BOUND('',#481,.T.);
#25=FACE_BOUND('',#500,.T.);
#26=FACE_BOUND('',#511,.T.);
#27=FACE_BOUND('',#514,.T.);
#28=FACE_BOUND('',#517,.T.);
#29=FACE_BOUND('',#520,.T.);
#30=FACE_BOUND('',#528,.T.);
#31=PLANE('',#1271);
#32=PLANE('',#1272);
#33=PLANE('',#1273);
#34=PLANE('',#1278);
#35=PLANE('',#1279);
#36=PLANE('',#1280);
#37=PLANE('',#1281);
#38=PLANE('',#1282);
#39=PLANE('',#1285);
#40=PLANE('',#1286);
#41=PLANE('',#1287);
#42=PLANE('',#1288);
#43=PLANE('',#1289);
#44=PLANE('',#1290);
#45=PLANE('',#1291);
#46=PLANE('',#1292);
#47=PLANE('',#1293);
#48=PLANE('',#1294);
#49=PLANE('',#1295);
#50=PLANE('',#1296);
#51=PLANE('',#1297);
#52=PLANE('',#1302);
#53=PLANE('',#1303);
#54=PLANE('',#1304);
#55=PLANE('',#1305);
#56=PLANE('',#1306);
#57=PLANE('',#1307);
#58=PLANE('',#1308);
#59=PLANE('',#1309);
#60=PLANE('',#1310);
#61=PLANE('',#1311);
#62=PLANE('',#1312);
#63=PLANE('',#1313);
#64=PLANE('',#1314);
#65=PLANE('',#1315);
#66=PLANE('',#1316);
#67=PLANE('',#1317);
#68=PLANE('',#1318);
#69=PLANE('',#1319);
#70=PLANE('',#1338);
#71=PLANE('',#1341);
#72=PLANE('',#1344);
#73=PLANE('',#1347);
#74=PLANE('',#1348);
#75=PLANE('',#1349);
#76=PLANE('',#1350);
#77=PLANE('',#1351);
#78=PLANE('',#1352);
#79=PLANE('',#1353);
#80=PLANE('',#1354);
#81=ELLIPSE('',#1259,1.41421356237309,1.);
#82=ELLIPSE('',#1261,1.4142135623731,1.);
#83=ELLIPSE('',#1266,1.4142135623731,1.);
#84=ELLIPSE('',#1269,1.4142135623731,1.);
#85=LINE('',#1731,#221);
#86=LINE('',#1734,#222);
#87=LINE('',#1737,#223);
#88=LINE('',#1740,#224);
#89=LINE('',#1778,#225);
#90=LINE('',#1780,#226);
#91=LINE('',#1783,#227);
#92=LINE('',#1784,#228);
#93=LINE('',#1787,#229);
#94=LINE('',#1789,#230);
#95=LINE('',#1792,#231);
#96=LINE('',#1793,#232);
#97=LINE('',#1796,#233);
#98=LINE('',#1798,#234);
#99=LINE('',#1799,#235);
#100=LINE('',#1802,#236);
#101=LINE('',#1803,#237);
#102=LINE('',#1806,#238);
#103=LINE('',#1807,#239);
#104=LINE('',#1810,#240);
#105=LINE('',#1819,#241);
#106=LINE('',#1821,#242);
#107=LINE('',#1823,#243);
#108=LINE('',#1824,#244);
#109=LINE('',#1826,#245);
#110=LINE('',#1829,#246);
#111=LINE('',#1830,#247);
#112=LINE('',#1833,#248);
#113=LINE('',#1834,#249);
#114=LINE('',#1837,#250);
#115=LINE('',#1838,#251);
#116=LINE('',#1844,#252);
#117=LINE('',#1846,#253);
#118=LINE('',#1848,#254);
#119=LINE('',#1850,#255);
#120=LINE('',#1851,#256);
#121=LINE('',#1854,#257);
#122=LINE('',#1856,#258);
#123=LINE('',#1858,#259);
#124=LINE('',#1859,#260);
#125=LINE('',#1862,#261);
#126=LINE('',#1864,#262);
#127=LINE('',#1865,#263);
#128=LINE('',#1867,#264);
#129=LINE('',#1868,#265);
#130=LINE('',#1872,#266);
#131=LINE('',#1874,#267);
#132=LINE('',#1875,#268);
#133=LINE('',#1879,#269);
#134=LINE('',#1881,#270);
#135=LINE('',#1883,#271);
#136=LINE('',#1884,#272);
#137=LINE('',#1886,#273);
#138=LINE('',#1888,#274);
#139=LINE('',#1889,#275);
#140=LINE('',#1893,#276);
#141=LINE('',#1894,#277);
#142=LINE('',#1896,#278);
#143=LINE('',#1897,#279);
#144=LINE('',#1899,#280);
#145=LINE('',#1900,#281);
#146=LINE('',#1904,#282);
#147=LINE('',#1906,#283);
#148=LINE('',#1907,#284);
#149=LINE('',#1908,#285);
#150=LINE('',#1911,#286);
#151=LINE('',#1913,#287);
#152=LINE('',#1915,#288);
#153=LINE('',#1917,#289);
#154=LINE('',#1919,#290);
#155=LINE('',#1920,#291);
#156=LINE('',#1923,#292);
#157=LINE('',#1925,#293);
#158=LINE('',#1927,#294);
#159=LINE('',#1928,#295);
#160=LINE('',#1940,#296);
#161=LINE('',#1942,#297);
#162=LINE('',#1944,#298);
#163=LINE('',#1945,#299);
#164=LINE('',#1948,#300);
#165=LINE('',#1950,#301);
#166=LINE('',#1951,#302);
#167=LINE('',#1953,#303);
#168=LINE('',#1955,#304);
#169=LINE('',#1956,#305);
#170=LINE('',#1958,#306);
#171=LINE('',#1959,#307);
#172=LINE('',#1962,#308);
#173=LINE('',#1966,#309);
#174=LINE('',#1968,#310);
#175=LINE('',#1970,#311);
#176=LINE('',#1971,#312);
#177=LINE('',#1973,#313);
#178=LINE('',#1975,#314);
#179=LINE('',#1976,#315);
#180=LINE('',#1979,#316);
#181=LINE('',#1980,#317);
#182=LINE('',#1982,#318);
#183=LINE('',#1983,#319);
#184=LINE('',#1988,#320);
#185=LINE('',#1990,#321);
#186=LINE('',#1992,#322);
#187=LINE('',#1993,#323);
#188=LINE('',#1996,#324);
#189=LINE('',#1998,#325);
#190=LINE('',#1999,#326);
#191=LINE('',#2002,#327);
#192=LINE('',#2004,#328);
#193=LINE('',#2005,#329);
#194=LINE('',#2007,#330);
#195=LINE('',#2008,#331);
#196=LINE('',#2010,#332);
#197=LINE('',#2011,#333);
#198=LINE('',#2013,#334);
#199=LINE('',#2016,#335);
#200=LINE('',#2018,#336);
#201=LINE('',#2019,#337);
#202=LINE('',#2024,#338);
#203=LINE('',#2028,#339);
#204=LINE('',#2033,#340);
#205=LINE('',#2037,#341);
#206=LINE('',#2042,#342);
#207=LINE('',#2046,#343);
#208=LINE('',#2051,#344);
#209=LINE('',#2055,#345);
#210=LINE('',#2059,#346);
#211=LINE('',#2064,#347);
#212=LINE('',#2069,#348);
#213=LINE('',#2074,#349);
#214=LINE('',#2077,#350);
#215=LINE('',#2080,#351);
#216=LINE('',#2083,#352);
#217=LINE('',#2084,#353);
#218=LINE('',#2087,#354);
#219=LINE('',#2088,#355);
#220=LINE('',#2090,#356);
#221=VECTOR('',#1365,10.);
#222=VECTOR('',#1368,10.);
#223=VECTOR('',#1371,10.);
#224=VECTOR('',#1374,10.);
#225=VECTOR('',#1383,10.);
#226=VECTOR('',#1384,10.);
#227=VECTOR('',#1389,10.);
#228=VECTOR('',#1390,10.);
#229=VECTOR('',#1393,10.);
#230=VECTOR('',#1394,10.);
#231=VECTOR('',#1399,10.);
#232=VECTOR('',#1400,10.);
#233=VECTOR('',#1403,10.);
#234=VECTOR('',#1404,10.);
#235=VECTOR('',#1405,10.);
#236=VECTOR('',#1408,10.);
#237=VECTOR('',#1409,10.);
#238=VECTOR('',#1412,10.);
#239=VECTOR('',#1413,10.);
#240=VECTOR('',#1416,10.);
#241=VECTOR('',#1425,10.);
#242=VECTOR('',#1426,10.);
#243=VECTOR('',#1427,10.);
#244=VECTOR('',#1428,10.);
#245=VECTOR('',#1431,10.);
#246=VECTOR('',#1434,10.);
#247=VECTOR('',#1435,10.);
#248=VECTOR('',#1438,10.);
#249=VECTOR('',#1439,10.);
#250=VECTOR('',#1442,10.);
#251=VECTOR('',#1443,10.);
#252=VECTOR('',#1450,10.);
#253=VECTOR('',#1451,10.);
#254=VECTOR('',#1452,10.);
#255=VECTOR('',#1453,10.);
#256=VECTOR('',#1454,10.);
#257=VECTOR('',#1457,10.);
#258=VECTOR('',#1458,10.);
#259=VECTOR('',#1459,10.);
#260=VECTOR('',#1460,10.);
#261=VECTOR('',#1463,10.);
#262=VECTOR('',#1464,10.);
#263=VECTOR('',#1465,10.);
#264=VECTOR('',#1468,10.);
#265=VECTOR('',#1469,10.);
#266=VECTOR('',#1474,10.);
#267=VECTOR('',#1475,10.);
#268=VECTOR('',#1476,10.);
#269=VECTOR('',#1479,10.);
#270=VECTOR('',#1480,10.);
#271=VECTOR('',#1481,10.);
#272=VECTOR('',#1482,10.);
#273=VECTOR('',#1485,10.);
#274=VECTOR('',#1486,10.);
#275=VECTOR('',#1487,10.);
#276=VECTOR('',#1490,10.);
#277=VECTOR('',#1491,10.);
#278=VECTOR('',#1492,10.);
#279=VECTOR('',#1493,10.);
#280=VECTOR('',#1496,10.);
#281=VECTOR('',#1497,10.);
#282=VECTOR('',#1502,10.);
#283=VECTOR('',#1503,10.);
#284=VECTOR('',#1504,10.);
#285=VECTOR('',#1505,10.);
#286=VECTOR('',#1508,10.);
#287=VECTOR('',#1509,10.);
#288=VECTOR('',#1510,10.);
#289=VECTOR('',#1511,10.);
#290=VECTOR('',#1512,10.);
#291=VECTOR('',#1513,10.);
#292=VECTOR('',#1514,10.);
#293=VECTOR('',#1515,10.);
#294=VECTOR('',#1516,10.);
#295=VECTOR('',#1517,10.);
#296=VECTOR('',#1528,10.);
#297=VECTOR('',#1529,10.);
#298=VECTOR('',#1530,10.);
#299=VECTOR('',#1531,10.);
#300=VECTOR('',#1534,10.);
#301=VECTOR('',#1535,10.);
#302=VECTOR('',#1536,10.);
#303=VECTOR('',#1539,10.);
#304=VECTOR('',#1540,10.);
#305=VECTOR('',#1541,10.);
#306=VECTOR('',#1544,10.);
#307=VECTOR('',#1545,10.);
#308=VECTOR('',#1550,10.);
#309=VECTOR('',#1553,10.);
#310=VECTOR('',#1554,10.);
#311=VECTOR('',#1555,10.);
#312=VECTOR('',#1556,10.);
#313=VECTOR('',#1559,10.);
#314=VECTOR('',#1560,10.);
#315=VECTOR('',#1561,10.);
#316=VECTOR('',#1564,10.);
#317=VECTOR('',#1565,10.);
#318=VECTOR('',#1568,10.);
#319=VECTOR('',#1569,10.);
#320=VECTOR('',#1574,10.);
#321=VECTOR('',#1575,10.);
#322=VECTOR('',#1576,10.);
#323=VECTOR('',#1577,10.);
#324=VECTOR('',#1580,10.);
#325=VECTOR('',#1581,10.);
#326=VECTOR('',#1582,10.);
#327=VECTOR('',#1585,10.);
#328=VECTOR('',#1586,10.);
#329=VECTOR('',#1587,10.);
#330=VECTOR('',#1590,10.);
#331=VECTOR('',#1591,10.);
#332=VECTOR('',#1594,10.);
#333=VECTOR('',#1595,10.);
#334=VECTOR('',#1598,10.);
#335=VECTOR('',#1601,10.);
#336=VECTOR('',#1602,10.);
#337=VECTOR('',#1603,10.);
#338=VECTOR('',#1608,1.);
#339=VECTOR('',#1613,2.);
#340=VECTOR('',#1618,1.);
#341=VECTOR('',#1623,2.);
#342=VECTOR('',#1628,1.);
#343=VECTOR('',#1633,2.);
#344=VECTOR('',#1638,1.);
#345=VECTOR('',#1643,2.);
#346=VECTOR('',#1648,3.99999999999999);
#347=VECTOR('',#1655,3.99999999999999);
#348=VECTOR('',#1662,4.);
#349=VECTOR('',#1669,4.);
#350=VECTOR('',#1674,10.);
#351=VECTOR('',#1679,10.);
#352=VECTOR('',#1682,10.);
#353=VECTOR('',#1683,10.);
#354=VECTOR('',#1686,10.);
#355=VECTOR('',#1687,10.);
#356=VECTOR('',#1690,10.);
#357=CYLINDRICAL_SURFACE('',#1258,1.);
#358=CYLINDRICAL_SURFACE('',#1260,1.);
#359=CYLINDRICAL_SURFACE('',#1265,1.);
#360=CYLINDRICAL_SURFACE('',#1267,1.);
#361=CYLINDRICAL_SURFACE('',#1268,1.);
#362=CYLINDRICAL_SURFACE('',#1270,1.);
#363=CYLINDRICAL_SURFACE('',#1274,8.5);
#364=CYLINDRICAL_SURFACE('',#1283,8.5);
#365=CYLINDRICAL_SURFACE('',#1322,2.);
#366=CYLINDRICAL_SURFACE('',#1326,2.);
#367=CYLINDRICAL_SURFACE('',#1330,2.);
#368=CYLINDRICAL_SURFACE('',#1334,2.);
#369=CYLINDRICAL_SURFACE('',#1336,3.99999999999999);
#370=CYLINDRICAL_SURFACE('',#1339,3.99999999999999);
#371=CYLINDRICAL_SURFACE('',#1342,4.);
#372=CYLINDRICAL_SURFACE('',#1345,4.);
#373=FACE_OUTER_BOUND('',#445,.T.);
#374=FACE_OUTER_BOUND('',#446,.T.);
#375=FACE_OUTER_BOUND('',#447,.T.);
#376=FACE_OUTER_BOUND('',#448,.T.);
#377=FACE_OUTER_BOUND('',#449,.T.);
#378=FACE_OUTER_BOUND('',#450,.T.);
#379=FACE_OUTER_BOUND('',#451,.T.);
#380=FACE_OUTER_BOUND('',#452,.T.);
#381=FACE_OUTER_BOUND('',#453,.T.);
#382=FACE_OUTER_BOUND('',#454,.T.);
#383=FACE_OUTER_BOUND('',#455,.T.);
#384=FACE_OUTER_BOUND('',#456,.T.);
#385=FACE_OUTER_BOUND('',#457,.T.);
#386=FACE_OUTER_BOUND('',#459,.T.);
#387=FACE_OUTER_BOUND('',#460,.T.);
#388=FACE_OUTER_BOUND('',#461,.T.);
#389=FACE_OUTER_BOUND('',#462,.T.);
#390=FACE_OUTER_BOUND('',#463,.T.);
#391=FACE_OUTER_BOUND('',#464,.T.);
#392=FACE_OUTER_BOUND('',#465,.T.);
#393=FACE_OUTER_BOUND('',#466,.T.);
#394=FACE_OUTER_BOUND('',#467,.T.);
#395=FACE_OUTER_BOUND('',#468,.T.);
#396=FACE_OUTER_BOUND('',#469,.T.);
#397=FACE_OUTER_BOUND('',#470,.T.);
#398=FACE_OUTER_BOUND('',#471,.T.);
#399=FACE_OUTER_BOUND('',#472,.T.);
#400=FACE_OUTER_BOUND('',#473,.T.);
#401=FACE_OUTER_BOUND('',#474,.T.);
#402=FACE_OUTER_BOUND('',#475,.T.);
#403=FACE_OUTER_BOUND('',#476,.T.);
#404=FACE_OUTER_BOUND('',#482,.T.);
#405=FACE_OUTER_BOUND('',#483,.T.);
#406=FACE_OUTER_BOUND('',#484,.T.);
#407=FACE_OUTER_BOUND('',#485,.T.);
#408=FACE_OUTER_BOUND('',#486,.T.);
#409=FACE_OUTER_BOUND('',#487,.T.);
#410=FACE_OUTER_BOUND('',#488,.T.);
#411=FACE_OUTER_BOUND('',#489,.T.);
#412=FACE_OUTER_BOUND('',#490,.T.);
#413=FACE_OUTER_BOUND('',#491,.T.);
#414=FACE_OUTER_BOUND('',#492,.T.);
#415=FACE_OUTER_BOUND('',#493,.T.);
#416=FACE_OUTER_BOUND('',#494,.T.);
#417=FACE_OUTER_BOUND('',#495,.T.);
#418=FACE_OUTER_BOUND('',#496,.T.);
#419=FACE_OUTER_BOUND('',#497,.T.);
#420=FACE_OUTER_BOUND('',#498,.T.);
#421=FACE_OUTER_BOUND('',#499,.T.);
#422=FACE_OUTER_BOUND('',#501,.T.);
#423=FACE_OUTER_BOUND('',#502,.T.);
#424=FACE_OUTER_BOUND('',#503,.T.);
#425=FACE_OUTER_BOUND('',#504,.T.);
#426=FACE_OUTER_BOUND('',#505,.T.);
#427=FACE_OUTER_BOUND('',#506,.T.);
#428=FACE_OUTER_BOUND('',#507,.T.);
#429=FACE_OUTER_BOUND('',#508,.T.);
#430=FACE_OUTER_BOUND('',#509,.T.);
#431=FACE_OUTER_BOUND('',#510,.T.);
#432=FACE_OUTER_BOUND('',#512,.T.);
#433=FACE_OUTER_BOUND('',#513,.T.);
#434=FACE_OUTER_BOUND('',#515,.T.);
#435=FACE_OUTER_BOUND('',#516,.T.);
#436=FACE_OUTER_BOUND('',#518,.T.);
#437=FACE_OUTER_BOUND('',#519,.T.);
#438=FACE_OUTER_BOUND('',#521,.T.);
#439=FACE_OUTER_BOUND('',#522,.T.);
#440=FACE_OUTER_BOUND('',#523,.T.);
#441=FACE_OUTER_BOUND('',#524,.T.);
#442=FACE_OUTER_BOUND('',#525,.T.);
#443=FACE_OUTER_BOUND('',#526,.T.);
#444=FACE_OUTER_BOUND('',#527,.T.);
#445=EDGE_LOOP('',(#831,#832,#833,#834));
#446=EDGE_LOOP('',(#835,#836,#837,#838));
#447=EDGE_LOOP('',(#839,#840,#841,#842));
#448=EDGE_LOOP('',(#843,#844,#845,#846));
#449=EDGE_LOOP('',(#847,#848,#849,#850));
#450=EDGE_LOOP('',(#851,#852,#853,#854));
#451=EDGE_LOOP('',(#855,#856,#857,#858));
#452=EDGE_LOOP('',(#859,#860,#861,#862));
#453=EDGE_LOOP('',(#863,#864,#865,#866));
#454=EDGE_LOOP('',(#867,#868,#869,#870));
#455=EDGE_LOOP('',(#871,#872,#873,#874));
#456=EDGE_LOOP('',(#875,#876,#877,#878,#879,#880));
#457=EDGE_LOOP('',(#881,#882,#883,#884));
#458=EDGE_LOOP('',(#885,#886,#887,#888,#889,#890,#891,#892));
#459=EDGE_LOOP('',(#893,#894));
#460=EDGE_LOOP('',(#895,#896,#897,#898));
#461=EDGE_LOOP('',(#899,#900,#901,#902));
#462=EDGE_LOOP('',(#903,#904,#905,#906));
#463=EDGE_LOOP('',(#907,#908,#909,#910));
#464=EDGE_LOOP('',(#911,#912,#913,#914,#915));
#465=EDGE_LOOP('',(#916,#917,#918,#919,#920));
#466=EDGE_LOOP('',(#921,#922,#923,#924));
#467=EDGE_LOOP('',(#925,#926,#927,#928));
#468=EDGE_LOOP('',(#929,#930,#931,#932));
#469=EDGE_LOOP('',(#933,#934,#935,#936));
#470=EDGE_LOOP('',(#937,#938,#939,#940));
#471=EDGE_LOOP('',(#941,#942,#943,#944));
#472=EDGE_LOOP('',(#945,#946,#947,#948,#949));
#473=EDGE_LOOP('',(#950,#951,#952,#953,#954));
#474=EDGE_LOOP('',(#955,#956,#957,#958));
#475=EDGE_LOOP('',(#959,#960,#961,#962,#963,#964,#965,#966,#967,#968,#969,
#970,#971,#972));
#476=EDGE_LOOP('',(#973,#974,#975,#976,#977,#978,#979,#980,#981,#982,#983,
#984,#985,#986));
#477=EDGE_LOOP('',(#987,#988,#989,#990));
#478=EDGE_LOOP('',(#991));
#479=EDGE_LOOP('',(#992));
#480=EDGE_LOOP('',(#993));
#481=EDGE_LOOP('',(#994));
#482=EDGE_LOOP('',(#995,#996,#997,#998));
#483=EDGE_LOOP('',(#999,#1000,#1001,#1002));
#484=EDGE_LOOP('',(#1003,#1004,#1005,#1006,#1007));
#485=EDGE_LOOP('',(#1008,#1009,#1010,#1011,#1012));
#486=EDGE_LOOP('',(#1013,#1014,#1015,#1016));
#487=EDGE_LOOP('',(#1017,#1018,#1019,#1020));
#488=EDGE_LOOP('',(#1021,#1022,#1023,#1024));
#489=EDGE_LOOP('',(#1025,#1026,#1027,#1028,#1029));
#490=EDGE_LOOP('',(#1030,#1031,#1032,#1033,#1034));
#491=EDGE_LOOP('',(#1035,#1036,#1037,#1038));
#492=EDGE_LOOP('',(#1039,#1040,#1041,#1042));
#493=EDGE_LOOP('',(#1043,#1044,#1045,#1046));
#494=EDGE_LOOP('',(#1047,#1048,#1049,#1050));
#495=EDGE_LOOP('',(#1051,#1052,#1053,#1054));
#496=EDGE_LOOP('',(#1055,#1056,#1057,#1058));
#497=EDGE_LOOP('',(#1059,#1060,#1061,#1062));
#498=EDGE_LOOP('',(#1063,#1064,#1065,#1066));
#499=EDGE_LOOP('',(#1067,#1068,#1069,#1070));
#500=EDGE_LOOP('',(#1071,#1072,#1073,#1074));
#501=EDGE_LOOP('',(#1075,#1076,#1077));
#502=EDGE_LOOP('',(#1078,#1079,#1080,#1081));
#503=EDGE_LOOP('',(#1082,#1083,#1084));
#504=EDGE_LOOP('',(#1085,#1086,#1087,#1088));
#505=EDGE_LOOP('',(#1089,#1090,#1091));
#506=EDGE_LOOP('',(#1092,#1093,#1094,#1095));
#507=EDGE_LOOP('',(#1096,#1097,#1098));
#508=EDGE_LOOP('',(#1099,#1100,#1101,#1102));
#509=EDGE_LOOP('',(#1103,#1104,#1105,#1106));
#510=EDGE_LOOP('',(#1107));
#511=EDGE_LOOP('',(#1108));
#512=EDGE_LOOP('',(#1109,#1110,#1111,#1112));
#513=EDGE_LOOP('',(#1113));
#514=EDGE_LOOP('',(#1114));
#515=EDGE_LOOP('',(#1115,#1116,#1117,#1118));
#516=EDGE_LOOP('',(#1119));
#517=EDGE_LOOP('',(#1120));
#518=EDGE_LOOP('',(#1121,#1122,#1123,#1124));
#519=EDGE_LOOP('',(#1125));
#520=EDGE_LOOP('',(#1126));
#521=EDGE_LOOP('',(#1127,#1128,#1129,#1130));
#522=EDGE_LOOP('',(#1131,#1132,#1133,#1134));
#523=EDGE_LOOP('',(#1135,#1136,#1137,#1138));
#524=EDGE_LOOP('',(#1139,#1140,#1141,#1142));
#525=EDGE_LOOP('',(#1143,#1144,#1145,#1146));
#526=EDGE_LOOP('',(#1147,#1148,#1149,#1150));
#527=EDGE_LOOP('',(#1151,#1152,#1153,#1154));
#528=EDGE_LOOP('',(#1155,#1156,#1157,#1158,#1159,#1160,#1161,#1162,#1163,
#1164,#1165,#1166));
#529=B_SPLINE_CURVE_WITH_KNOTS('',3,(#1699,#1700,#1701,#1702,#1703,#1704,
#1705,#1706,#1707,#1708,#1709,#1710,#1711,#1712),.UNSPECIFIED.,.F.,.F.,
(4,2,2,2,2,2,4),(-0.000530001933489515,0.,0.0313643345846212,0.0622799344099947,
0.104945024028826,0.140587048266736,0.173225173495389),.UNSPECIFIED.);
#530=B_SPLINE_CURVE_WITH_KNOTS('',3,(#1715,#1716,#1717,#1718,#1719,#1720,
#1721,#1722,#1723,#1724,#1725,#1726,#1727,#1728),.UNSPECIFIED.,.F.,.F.,
(4,2,2,2,2,2,4),(-0.172810229058994,-0.172283109476536,-0.141089346007296,
-0.110341876908169,-0.0679088161855466,-0.0324606267576952,0.),
 .UNSPECIFIED.);
#531=B_SPLINE_CURVE_WITH_KNOTS('',3,(#1746,#1747,#1748,#1749,#1750,#1751,
#1752,#1753,#1754,#1755,#1756,#1757,#1758,#1759),.UNSPECIFIED.,.F.,.F.,
(4,2,2,2,2,2,4),(-0.000530001956092634,0.,0.0313643380557009,0.0622799411489765,
0.104945031316863,0.140587054514724,0.173225178163572),.UNSPECIFIED.);
#532=B_SPLINE_CURVE_WITH_KNOTS('',3,(#1762,#1763,#1764,#1765,#1766,#1767,
#1768,#1769,#1770,#1771,#1772,#1773,#1774,#1775),.UNSPECIFIED.,.F.,.F.,
(4,2,2,2,2,2,4),(0.,0.0324606251468441,0.067908813497042,0.11034187471394,
0.141089347025659,0.17228311390851,0.172810233512875),.UNSPECIFIED.);
#533=CIRCLE('',#1256,9.5);
#534=CIRCLE('',#1257,8.5);
#535=CIRCLE('',#1263,9.5);
#536=CIRCLE('',#1264,8.5);
#537=CIRCLE('',#1275,8.5);
#538=CIRCLE('',#1276,8.5);
#539=CIRCLE('',#1277,8.5);
#540=CIRCLE('',#1284,8.5);
#541=CIRCLE('',#1298,4.);
#542=CIRCLE('',#1299,4.);
#543=CIRCLE('',#1300,3.99999999999999);
#544=CIRCLE('',#1301,3.99999999999999);
#545=CIRCLE('',#1321,2.);
#546=CIRCLE('',#1323,2.);
#547=CIRCLE('',#1325,2.);
#548=CIRCLE('',#1327,2.);
#549=CIRCLE('',#1329,2.);
#550=CIRCLE('',#1331,2.);
#551=CIRCLE('',#1333,2.);
#552=CIRCLE('',#1335,2.);
#553=CIRCLE('',#1337,3.99999999999999);
#554=CIRCLE('',#1340,3.99999999999999);
#555=CIRCLE('',#1343,4.);
#556=CIRCLE('',#1346,4.);
#557=VERTEX_POINT('',#1695);
#558=VERTEX_POINT('',#1696);
#559=VERTEX_POINT('',#1698);
#560=VERTEX_POINT('',#1713);
#561=VERTEX_POINT('',#1730);
#562=VERTEX_POINT('',#1732);
#563=VERTEX_POINT('',#1736);
#564=VERTEX_POINT('',#1738);
#565=VERTEX_POINT('',#1742);
#566=VERTEX_POINT('',#1743);
#567=VERTEX_POINT('',#1745);
#568=VERTEX_POINT('',#1760);
#569=VERTEX_POINT('',#1777);
#570=VERTEX_POINT('',#1779);
#571=VERTEX_POINT('',#1786);
#572=VERTEX_POINT('',#1788);
#573=VERTEX_POINT('',#1795);
#574=VERTEX_POINT('',#1797);
#575=VERTEX_POINT('',#1801);
#576=VERTEX_POINT('',#1805);
#577=VERTEX_POINT('',#1809);
#578=VERTEX_POINT('',#1811);
#579=VERTEX_POINT('',#1813);
#580=VERTEX_POINT('',#1817);
#581=VERTEX_POINT('',#1818);
#582=VERTEX_POINT('',#1820);
#583=VERTEX_POINT('',#1822);
#584=VERTEX_POINT('',#1828);
#585=VERTEX_POINT('',#1832);
#586=VERTEX_POINT('',#1836);
#587=VERTEX_POINT('',#1842);
#588=VERTEX_POINT('',#1843);
#589=VERTEX_POINT('',#1845);
#590=VERTEX_POINT('',#1847);
#591=VERTEX_POINT('',#1849);
#592=VERTEX_POINT('',#1853);
#593=VERTEX_POINT('',#1855);
#594=VERTEX_POINT('',#1857);
#595=VERTEX_POINT('',#1861);
#596=VERTEX_POINT('',#1863);
#597=VERTEX_POINT('',#1871);
#598=VERTEX_POINT('',#1873);
#599=VERTEX_POINT('',#1877);
#600=VERTEX_POINT('',#1878);
#601=VERTEX_POINT('',#1880);
#602=VERTEX_POINT('',#1882);
#603=VERTEX_POINT('',#1887);
#604=VERTEX_POINT('',#1891);
#605=VERTEX_POINT('',#1892);
#606=VERTEX_POINT('',#1895);
#607=VERTEX_POINT('',#1903);
#608=VERTEX_POINT('',#1905);
#609=VERTEX_POINT('',#1910);
#610=VERTEX_POINT('',#1912);
#611=VERTEX_POINT('',#1914);
#612=VERTEX_POINT('',#1916);
#613=VERTEX_POINT('',#1918);
#614=VERTEX_POINT('',#1921);
#615=VERTEX_POINT('',#1922);
#616=VERTEX_POINT('',#1924);
#617=VERTEX_POINT('',#1926);
#618=VERTEX_POINT('',#1929);
#619=VERTEX_POINT('',#1931);
#620=VERTEX_POINT('',#1933);
#621=VERTEX_POINT('',#1935);
#622=VERTEX_POINT('',#1938);
#623=VERTEX_POINT('',#1939);
#624=VERTEX_POINT('',#1941);
#625=VERTEX_POINT('',#1943);
#626=VERTEX_POINT('',#1947);
#627=VERTEX_POINT('',#1949);
#628=VERTEX_POINT('',#1954);
#629=VERTEX_POINT('',#1964);
#630=VERTEX_POINT('',#1965);
#631=VERTEX_POINT('',#1967);
#632=VERTEX_POINT('',#1969);
#633=VERTEX_POINT('',#1974);
#634=VERTEX_POINT('',#1978);
#635=VERTEX_POINT('',#1986);
#636=VERTEX_POINT('',#1987);
#637=VERTEX_POINT('',#1989);
#638=VERTEX_POINT('',#1991);
#639=VERTEX_POINT('',#1995);
#640=VERTEX_POINT('',#1997);
#641=VERTEX_POINT('',#2001);
#642=VERTEX_POINT('',#2003);
#643=VERTEX_POINT('',#2015);
#644=VERTEX_POINT('',#2017);
#645=VERTEX_POINT('',#2021);
#646=VERTEX_POINT('',#2023);
#647=VERTEX_POINT('',#2026);
#648=VERTEX_POINT('',#2030);
#649=VERTEX_POINT('',#2032);
#650=VERTEX_POINT('',#2035);
#651=VERTEX_POINT('',#2039);
#652=VERTEX_POINT('',#2041);
#653=VERTEX_POINT('',#2044);
#654=VERTEX_POINT('',#2048);
#655=VERTEX_POINT('',#2050);
#656=VERTEX_POINT('',#2053);
#657=VERTEX_POINT('',#2057);
#658=VERTEX_POINT('',#2062);
#659=VERTEX_POINT('',#2067);
#660=VERTEX_POINT('',#2072);
#661=VERTEX_POINT('',#2082);
#662=VERTEX_POINT('',#2086);
#663=EDGE_CURVE('',#557,#558,#533,.T.);
#664=EDGE_CURVE('',#558,#559,#529,.T.);
#665=EDGE_CURVE('',#559,#560,#534,.T.);
#666=EDGE_CURVE('',#557,#560,#530,.T.);
#667=EDGE_CURVE('',#558,#561,#85,.T.);
#668=EDGE_CURVE('',#561,#562,#81,.T.);
#669=EDGE_CURVE('',#562,#559,#86,.T.);
#670=EDGE_CURVE('',#561,#563,#87,.T.);
#671=EDGE_CURVE('',#563,#564,#82,.T.);
#672=EDGE_CURVE('',#564,#562,#88,.T.);
#673=EDGE_CURVE('',#565,#566,#535,.T.);
#674=EDGE_CURVE('',#566,#567,#531,.T.);
#675=EDGE_CURVE('',#567,#568,#536,.T.);
#676=EDGE_CURVE('',#568,#565,#532,.T.);
#677=EDGE_CURVE('',#569,#567,#89,.T.);
#678=EDGE_CURVE('',#566,#570,#90,.T.);
#679=EDGE_CURVE('',#570,#569,#83,.T.);
#680=EDGE_CURVE('',#563,#565,#91,.T.);
#681=EDGE_CURVE('',#568,#564,#92,.T.);
#682=EDGE_CURVE('',#571,#569,#93,.T.);
#683=EDGE_CURVE('',#570,#572,#94,.T.);
#684=EDGE_CURVE('',#572,#571,#84,.T.);
#685=EDGE_CURVE('',#560,#571,#95,.T.);
#686=EDGE_CURVE('',#572,#557,#96,.T.);
#687=EDGE_CURVE('',#562,#573,#97,.T.);
#688=EDGE_CURVE('',#574,#573,#98,.T.);
#689=EDGE_CURVE('',#559,#574,#99,.T.);
#690=EDGE_CURVE('',#564,#575,#100,.T.);
#691=EDGE_CURVE('',#573,#575,#101,.T.);
#692=EDGE_CURVE('',#568,#576,#102,.T.);
#693=EDGE_CURVE('',#575,#576,#103,.T.);
#694=EDGE_CURVE('',#567,#577,#104,.T.);
#695=EDGE_CURVE('',#578,#577,#537,.T.);
#696=EDGE_CURVE('',#578,#579,#538,.T.);
#697=EDGE_CURVE('',#576,#579,#539,.T.);
#698=EDGE_CURVE('',#580,#581,#105,.T.);
#699=EDGE_CURVE('',#581,#582,#106,.T.);
#700=EDGE_CURVE('',#583,#582,#107,.T.);
#701=EDGE_CURVE('',#580,#583,#108,.T.);
#702=EDGE_CURVE('',#578,#579,#109,.F.);
#703=EDGE_CURVE('',#569,#584,#110,.T.);
#704=EDGE_CURVE('',#577,#584,#111,.T.);
#705=EDGE_CURVE('',#571,#585,#112,.T.);
#706=EDGE_CURVE('',#584,#585,#113,.T.);
#707=EDGE_CURVE('',#560,#586,#114,.T.);
#708=EDGE_CURVE('',#585,#586,#115,.T.);
#709=EDGE_CURVE('',#586,#574,#540,.T.);
#710=EDGE_CURVE('',#587,#588,#116,.T.);
#711=EDGE_CURVE('',#589,#587,#117,.T.);
#712=EDGE_CURVE('',#589,#590,#118,.T.);
#713=EDGE_CURVE('',#591,#590,#119,.T.);
#714=EDGE_CURVE('',#588,#591,#120,.T.);
#715=EDGE_CURVE('',#588,#592,#121,.T.);
#716=EDGE_CURVE('',#593,#591,#122,.T.);
#717=EDGE_CURVE('',#594,#593,#123,.T.);
#718=EDGE_CURVE('',#592,#594,#124,.T.);
#719=EDGE_CURVE('',#594,#595,#125,.T.);
#720=EDGE_CURVE('',#596,#593,#126,.T.);
#721=EDGE_CURVE('',#595,#596,#127,.T.);
#722=EDGE_CURVE('',#595,#589,#128,.T.);
#723=EDGE_CURVE('',#590,#596,#129,.T.);
#724=EDGE_CURVE('',#587,#597,#130,.F.);
#725=EDGE_CURVE('',#597,#598,#131,.T.);
#726=EDGE_CURVE('',#589,#598,#132,.T.);
#727=EDGE_CURVE('',#599,#600,#133,.T.);
#728=EDGE_CURVE('',#599,#601,#134,.T.);
#729=EDGE_CURVE('',#602,#601,#135,.T.);
#730=EDGE_CURVE('',#600,#602,#136,.T.);
#731=EDGE_CURVE('',#598,#599,#137,.T.);
#732=EDGE_CURVE('',#598,#603,#138,.T.);
#733=EDGE_CURVE('',#601,#603,#139,.T.);
#734=EDGE_CURVE('',#604,#605,#140,.T.);
#735=EDGE_CURVE('',#600,#604,#141,.T.);
#736=EDGE_CURVE('',#606,#602,#142,.T.);
#737=EDGE_CURVE('',#605,#606,#143,.T.);
#738=EDGE_CURVE('',#605,#597,#144,.T.);
#739=EDGE_CURVE('',#603,#606,#145,.T.);
#740=EDGE_CURVE('',#579,#607,#146,.F.);
#741=EDGE_CURVE('',#607,#608,#147,.T.);
#742=EDGE_CURVE('',#600,#608,#148,.T.);
#743=EDGE_CURVE('',#604,#578,#149,.F.);
#744=EDGE_CURVE('',#609,#592,#150,.F.);
#745=EDGE_CURVE('',#609,#610,#151,.T.);
#746=EDGE_CURVE('',#610,#611,#152,.T.);
#747=EDGE_CURVE('',#612,#611,#153,.F.);
#748=EDGE_CURVE('',#612,#613,#154,.T.);
#749=EDGE_CURVE('',#613,#607,#155,.T.);
#750=EDGE_CURVE('',#614,#615,#156,.T.);
#751=EDGE_CURVE('',#615,#616,#157,.T.);
#752=EDGE_CURVE('',#616,#617,#158,.T.);
#753=EDGE_CURVE('',#617,#614,#159,.T.);
#754=EDGE_CURVE('',#618,#618,#541,.T.);
#755=EDGE_CURVE('',#619,#619,#542,.T.);
#756=EDGE_CURVE('',#620,#620,#543,.T.);
#757=EDGE_CURVE('',#621,#621,#544,.T.);
#758=EDGE_CURVE('',#622,#623,#160,.T.);
#759=EDGE_CURVE('',#622,#624,#161,.T.);
#760=EDGE_CURVE('',#625,#624,#162,.T.);
#761=EDGE_CURVE('',#623,#625,#163,.T.);
#762=EDGE_CURVE('',#626,#622,#164,.T.);
#763=EDGE_CURVE('',#626,#627,#165,.T.);
#764=EDGE_CURVE('',#624,#627,#166,.T.);
#765=EDGE_CURVE('',#623,#609,#167,.T.);
#766=EDGE_CURVE('',#628,#625,#168,.T.);
#767=EDGE_CURVE('',#610,#628,#169,.T.);
#768=EDGE_CURVE('',#627,#628,#170,.T.);
#769=EDGE_CURVE('',#611,#626,#171,.T.);
#770=EDGE_CURVE('',#623,#594,#172,.T.);
#771=EDGE_CURVE('',#629,#630,#173,.T.);
#772=EDGE_CURVE('',#629,#631,#174,.T.);
#773=EDGE_CURVE('',#632,#631,#175,.T.);
#774=EDGE_CURVE('',#630,#632,#176,.T.);
#775=EDGE_CURVE('',#630,#612,#177,.T.);
#776=EDGE_CURVE('',#633,#632,#178,.T.);
#777=EDGE_CURVE('',#613,#633,#179,.T.);
#778=EDGE_CURVE('',#634,#633,#180,.T.);
#779=EDGE_CURVE('',#608,#634,#181,.T.);
#780=EDGE_CURVE('',#608,#629,#182,.T.);
#781=EDGE_CURVE('',#631,#634,#183,.T.);
#782=EDGE_CURVE('',#635,#636,#184,.T.);
#783=EDGE_CURVE('',#636,#637,#185,.T.);
#784=EDGE_CURVE('',#637,#638,#186,.T.);
#785=EDGE_CURVE('',#638,#635,#187,.T.);
#786=EDGE_CURVE('',#636,#639,#188,.T.);
#787=EDGE_CURVE('',#639,#640,#189,.T.);
#788=EDGE_CURVE('',#640,#637,#190,.T.);
#789=EDGE_CURVE('',#641,#640,#191,.T.);
#790=EDGE_CURVE('',#639,#642,#192,.T.);
#791=EDGE_CURVE('',#642,#641,#193,.T.);
#792=EDGE_CURVE('',#642,#635,#194,.T.);
#793=EDGE_CURVE('',#638,#641,#195,.T.);
#794=EDGE_CURVE('',#638,#614,#196,.T.);
#795=EDGE_CURVE('',#641,#617,#197,.T.);
#796=EDGE_CURVE('',#637,#615,#198,.T.);
#797=EDGE_CURVE('',#582,#643,#199,.T.);
#798=EDGE_CURVE('',#643,#644,#200,.T.);
#799=EDGE_CURVE('',#644,#583,#201,.T.);
#800=EDGE_CURVE('',#645,#645,#545,.T.);
#801=EDGE_CURVE('',#645,#646,#202,.T.);
#802=EDGE_CURVE('',#647,#647,#546,.T.);
#803=EDGE_CURVE('',#647,#645,#203,.T.);
#804=EDGE_CURVE('',#648,#648,#547,.T.);
#805=EDGE_CURVE('',#648,#649,#204,.T.);
#806=EDGE_CURVE('',#650,#650,#548,.T.);
#807=EDGE_CURVE('',#650,#648,#205,.T.);
#808=EDGE_CURVE('',#651,#651,#549,.T.);
#809=EDGE_CURVE('',#651,#652,#206,.T.);
#810=EDGE_CURVE('',#653,#653,#550,.T.);
#811=EDGE_CURVE('',#653,#651,#207,.T.);
#812=EDGE_CURVE('',#654,#654,#551,.T.);
#813=EDGE_CURVE('',#654,#655,#208,.T.);
#814=EDGE_CURVE('',#656,#656,#552,.T.);
#815=EDGE_CURVE('',#656,#654,#209,.T.);
#816=EDGE_CURVE('',#657,#657,#553,.T.);
#817=EDGE_CURVE('',#657,#621,#210,.T.);
#818=EDGE_CURVE('',#658,#658,#554,.T.);
#819=EDGE_CURVE('',#658,#620,#211,.T.);
#820=EDGE_CURVE('',#659,#659,#555,.T.);
#821=EDGE_CURVE('',#659,#619,#212,.T.);
#822=EDGE_CURVE('',#660,#660,#556,.T.);
#823=EDGE_CURVE('',#660,#618,#213,.T.);
#824=EDGE_CURVE('',#640,#616,#214,.T.);
#825=EDGE_CURVE('',#630,#626,#215,.T.);
#826=EDGE_CURVE('',#661,#580,#216,.T.);
#827=EDGE_CURVE('',#661,#644,#217,.T.);
#828=EDGE_CURVE('',#662,#661,#218,.T.);
#829=EDGE_CURVE('',#662,#643,#219,.T.);
#830=EDGE_CURVE('',#581,#662,#220,.T.);
#831=ORIENTED_EDGE('',*,*,#663,.T.);
#832=ORIENTED_EDGE('',*,*,#664,.T.);
#833=ORIENTED_EDGE('',*,*,#665,.T.);
#834=ORIENTED_EDGE('',*,*,#666,.F.);
#835=ORIENTED_EDGE('',*,*,#667,.T.);
#836=ORIENTED_EDGE('',*,*,#668,.T.);
#837=ORIENTED_EDGE('',*,*,#669,.T.);
#838=ORIENTED_EDGE('',*,*,#664,.F.);
#839=ORIENTED_EDGE('',*,*,#670,.T.);
#840=ORIENTED_EDGE('',*,*,#671,.T.);
#841=ORIENTED_EDGE('',*,*,#672,.T.);
#842=ORIENTED_EDGE('',*,*,#668,.F.);
#843=ORIENTED_EDGE('',*,*,#673,.T.);
#844=ORIENTED_EDGE('',*,*,#674,.T.);
#845=ORIENTED_EDGE('',*,*,#675,.T.);
#846=ORIENTED_EDGE('',*,*,#676,.T.);
#847=ORIENTED_EDGE('',*,*,#677,.T.);
#848=ORIENTED_EDGE('',*,*,#674,.F.);
#849=ORIENTED_EDGE('',*,*,#678,.T.);
#850=ORIENTED_EDGE('',*,*,#679,.T.);
#851=ORIENTED_EDGE('',*,*,#680,.T.);
#852=ORIENTED_EDGE('',*,*,#676,.F.);
#853=ORIENTED_EDGE('',*,*,#681,.T.);
#854=ORIENTED_EDGE('',*,*,#671,.F.);
#855=ORIENTED_EDGE('',*,*,#682,.T.);
#856=ORIENTED_EDGE('',*,*,#679,.F.);
#857=ORIENTED_EDGE('',*,*,#683,.T.);
#858=ORIENTED_EDGE('',*,*,#684,.T.);
#859=ORIENTED_EDGE('',*,*,#685,.T.);
#860=ORIENTED_EDGE('',*,*,#684,.F.);
#861=ORIENTED_EDGE('',*,*,#686,.T.);
#862=ORIENTED_EDGE('',*,*,#666,.T.);
#863=ORIENTED_EDGE('',*,*,#669,.F.);
#864=ORIENTED_EDGE('',*,*,#687,.T.);
#865=ORIENTED_EDGE('',*,*,#688,.F.);
#866=ORIENTED_EDGE('',*,*,#689,.F.);
#867=ORIENTED_EDGE('',*,*,#672,.F.);
#868=ORIENTED_EDGE('',*,*,#690,.T.);
#869=ORIENTED_EDGE('',*,*,#691,.F.);
#870=ORIENTED_EDGE('',*,*,#687,.F.);
#871=ORIENTED_EDGE('',*,*,#681,.F.);
#872=ORIENTED_EDGE('',*,*,#692,.T.);
#873=ORIENTED_EDGE('',*,*,#693,.F.);
#874=ORIENTED_EDGE('',*,*,#690,.F.);
#875=ORIENTED_EDGE('',*,*,#675,.F.);
#876=ORIENTED_EDGE('',*,*,#694,.T.);
#877=ORIENTED_EDGE('',*,*,#695,.F.);
#878=ORIENTED_EDGE('',*,*,#696,.T.);
#879=ORIENTED_EDGE('',*,*,#697,.F.);
#880=ORIENTED_EDGE('',*,*,#692,.F.);
#881=ORIENTED_EDGE('',*,*,#698,.T.);
#882=ORIENTED_EDGE('',*,*,#699,.T.);
#883=ORIENTED_EDGE('',*,*,#700,.F.);
#884=ORIENTED_EDGE('',*,*,#701,.F.);
#885=ORIENTED_EDGE('',*,*,#673,.F.);
#886=ORIENTED_EDGE('',*,*,#680,.F.);
#887=ORIENTED_EDGE('',*,*,#670,.F.);
#888=ORIENTED_EDGE('',*,*,#667,.F.);
#889=ORIENTED_EDGE('',*,*,#663,.F.);
#890=ORIENTED_EDGE('',*,*,#686,.F.);
#891=ORIENTED_EDGE('',*,*,#683,.F.);
#892=ORIENTED_EDGE('',*,*,#678,.F.);
#893=ORIENTED_EDGE('',*,*,#702,.T.);
#894=ORIENTED_EDGE('',*,*,#696,.F.);
#895=ORIENTED_EDGE('',*,*,#677,.F.);
#896=ORIENTED_EDGE('',*,*,#703,.T.);
#897=ORIENTED_EDGE('',*,*,#704,.F.);
#898=ORIENTED_EDGE('',*,*,#694,.F.);
#899=ORIENTED_EDGE('',*,*,#682,.F.);
#900=ORIENTED_EDGE('',*,*,#705,.T.);
#901=ORIENTED_EDGE('',*,*,#706,.F.);
#902=ORIENTED_EDGE('',*,*,#703,.F.);
#903=ORIENTED_EDGE('',*,*,#685,.F.);
#904=ORIENTED_EDGE('',*,*,#707,.T.);
#905=ORIENTED_EDGE('',*,*,#708,.F.);
#906=ORIENTED_EDGE('',*,*,#705,.F.);
#907=ORIENTED_EDGE('',*,*,#665,.F.);
#908=ORIENTED_EDGE('',*,*,#689,.T.);
#909=ORIENTED_EDGE('',*,*,#709,.F.);
#910=ORIENTED_EDGE('',*,*,#707,.F.);
#911=ORIENTED_EDGE('',*,*,#710,.F.);
#912=ORIENTED_EDGE('',*,*,#711,.F.);
#913=ORIENTED_EDGE('',*,*,#712,.T.);
#914=ORIENTED_EDGE('',*,*,#713,.F.);
#915=ORIENTED_EDGE('',*,*,#714,.F.);
#916=ORIENTED_EDGE('',*,*,#715,.F.);
#917=ORIENTED_EDGE('',*,*,#714,.T.);
#918=ORIENTED_EDGE('',*,*,#716,.F.);
#919=ORIENTED_EDGE('',*,*,#717,.F.);
#920=ORIENTED_EDGE('',*,*,#718,.F.);
#921=ORIENTED_EDGE('',*,*,#719,.F.);
#922=ORIENTED_EDGE('',*,*,#717,.T.);
#923=ORIENTED_EDGE('',*,*,#720,.F.);
#924=ORIENTED_EDGE('',*,*,#721,.F.);
#925=ORIENTED_EDGE('',*,*,#722,.F.);
#926=ORIENTED_EDGE('',*,*,#721,.T.);
#927=ORIENTED_EDGE('',*,*,#723,.F.);
#928=ORIENTED_EDGE('',*,*,#712,.F.);
#929=ORIENTED_EDGE('',*,*,#723,.T.);
#930=ORIENTED_EDGE('',*,*,#720,.T.);
#931=ORIENTED_EDGE('',*,*,#716,.T.);
#932=ORIENTED_EDGE('',*,*,#713,.T.);
#933=ORIENTED_EDGE('',*,*,#711,.T.);
#934=ORIENTED_EDGE('',*,*,#724,.T.);
#935=ORIENTED_EDGE('',*,*,#725,.T.);
#936=ORIENTED_EDGE('',*,*,#726,.F.);
#937=ORIENTED_EDGE('',*,*,#727,.F.);
#938=ORIENTED_EDGE('',*,*,#728,.T.);
#939=ORIENTED_EDGE('',*,*,#729,.F.);
#940=ORIENTED_EDGE('',*,*,#730,.F.);
#941=ORIENTED_EDGE('',*,*,#731,.F.);
#942=ORIENTED_EDGE('',*,*,#732,.T.);
#943=ORIENTED_EDGE('',*,*,#733,.F.);
#944=ORIENTED_EDGE('',*,*,#728,.F.);
#945=ORIENTED_EDGE('',*,*,#734,.F.);
#946=ORIENTED_EDGE('',*,*,#735,.F.);
#947=ORIENTED_EDGE('',*,*,#730,.T.);
#948=ORIENTED_EDGE('',*,*,#736,.F.);
#949=ORIENTED_EDGE('',*,*,#737,.F.);
#950=ORIENTED_EDGE('',*,*,#738,.F.);
#951=ORIENTED_EDGE('',*,*,#737,.T.);
#952=ORIENTED_EDGE('',*,*,#739,.F.);
#953=ORIENTED_EDGE('',*,*,#732,.F.);
#954=ORIENTED_EDGE('',*,*,#725,.F.);
#955=ORIENTED_EDGE('',*,*,#739,.T.);
#956=ORIENTED_EDGE('',*,*,#736,.T.);
#957=ORIENTED_EDGE('',*,*,#729,.T.);
#958=ORIENTED_EDGE('',*,*,#733,.T.);
#959=ORIENTED_EDGE('',*,*,#697,.T.);
#960=ORIENTED_EDGE('',*,*,#740,.T.);
#961=ORIENTED_EDGE('',*,*,#741,.T.);
#962=ORIENTED_EDGE('',*,*,#742,.F.);
#963=ORIENTED_EDGE('',*,*,#735,.T.);
#964=ORIENTED_EDGE('',*,*,#743,.T.);
#965=ORIENTED_EDGE('',*,*,#695,.T.);
#966=ORIENTED_EDGE('',*,*,#704,.T.);
#967=ORIENTED_EDGE('',*,*,#706,.T.);
#968=ORIENTED_EDGE('',*,*,#708,.T.);
#969=ORIENTED_EDGE('',*,*,#709,.T.);
#970=ORIENTED_EDGE('',*,*,#688,.T.);
#971=ORIENTED_EDGE('',*,*,#691,.T.);
#972=ORIENTED_EDGE('',*,*,#693,.T.);
#973=ORIENTED_EDGE('',*,*,#715,.T.);
#974=ORIENTED_EDGE('',*,*,#744,.F.);
#975=ORIENTED_EDGE('',*,*,#745,.T.);
#976=ORIENTED_EDGE('',*,*,#746,.T.);
#977=ORIENTED_EDGE('',*,*,#747,.F.);
#978=ORIENTED_EDGE('',*,*,#748,.T.);
#979=ORIENTED_EDGE('',*,*,#749,.T.);
#980=ORIENTED_EDGE('',*,*,#740,.F.);
#981=ORIENTED_EDGE('',*,*,#702,.F.);
#982=ORIENTED_EDGE('',*,*,#743,.F.);
#983=ORIENTED_EDGE('',*,*,#734,.T.);
#984=ORIENTED_EDGE('',*,*,#738,.T.);
#985=ORIENTED_EDGE('',*,*,#724,.F.);
#986=ORIENTED_EDGE('',*,*,#710,.T.);
#987=ORIENTED_EDGE('',*,*,#750,.T.);
#988=ORIENTED_EDGE('',*,*,#751,.T.);
#989=ORIENTED_EDGE('',*,*,#752,.T.);
#990=ORIENTED_EDGE('',*,*,#753,.T.);
#991=ORIENTED_EDGE('',*,*,#754,.T.);
#992=ORIENTED_EDGE('',*,*,#755,.T.);
#993=ORIENTED_EDGE('',*,*,#756,.T.);
#994=ORIENTED_EDGE('',*,*,#757,.T.);
#995=ORIENTED_EDGE('',*,*,#758,.F.);
#996=ORIENTED_EDGE('',*,*,#759,.T.);
#997=ORIENTED_EDGE('',*,*,#760,.F.);
#998=ORIENTED_EDGE('',*,*,#761,.F.);
#999=ORIENTED_EDGE('',*,*,#762,.F.);
#1000=ORIENTED_EDGE('',*,*,#763,.T.);
#1001=ORIENTED_EDGE('',*,*,#764,.F.);
#1002=ORIENTED_EDGE('',*,*,#759,.F.);
#1003=ORIENTED_EDGE('',*,*,#745,.F.);
#1004=ORIENTED_EDGE('',*,*,#765,.F.);
#1005=ORIENTED_EDGE('',*,*,#761,.T.);
#1006=ORIENTED_EDGE('',*,*,#766,.F.);
#1007=ORIENTED_EDGE('',*,*,#767,.F.);
#1008=ORIENTED_EDGE('',*,*,#746,.F.);
#1009=ORIENTED_EDGE('',*,*,#767,.T.);
#1010=ORIENTED_EDGE('',*,*,#768,.F.);
#1011=ORIENTED_EDGE('',*,*,#763,.F.);
#1012=ORIENTED_EDGE('',*,*,#769,.F.);
#1013=ORIENTED_EDGE('',*,*,#768,.T.);
#1014=ORIENTED_EDGE('',*,*,#766,.T.);
#1015=ORIENTED_EDGE('',*,*,#760,.T.);
#1016=ORIENTED_EDGE('',*,*,#764,.T.);
#1017=ORIENTED_EDGE('',*,*,#718,.T.);
#1018=ORIENTED_EDGE('',*,*,#770,.F.);
#1019=ORIENTED_EDGE('',*,*,#765,.T.);
#1020=ORIENTED_EDGE('',*,*,#744,.T.);
#1021=ORIENTED_EDGE('',*,*,#771,.F.);
#1022=ORIENTED_EDGE('',*,*,#772,.T.);
#1023=ORIENTED_EDGE('',*,*,#773,.F.);
#1024=ORIENTED_EDGE('',*,*,#774,.F.);
#1025=ORIENTED_EDGE('',*,*,#748,.F.);
#1026=ORIENTED_EDGE('',*,*,#775,.F.);
#1027=ORIENTED_EDGE('',*,*,#774,.T.);
#1028=ORIENTED_EDGE('',*,*,#776,.F.);
#1029=ORIENTED_EDGE('',*,*,#777,.F.);
#1030=ORIENTED_EDGE('',*,*,#749,.F.);
#1031=ORIENTED_EDGE('',*,*,#777,.T.);
#1032=ORIENTED_EDGE('',*,*,#778,.F.);
#1033=ORIENTED_EDGE('',*,*,#779,.F.);
#1034=ORIENTED_EDGE('',*,*,#741,.F.);
#1035=ORIENTED_EDGE('',*,*,#780,.F.);
#1036=ORIENTED_EDGE('',*,*,#779,.T.);
#1037=ORIENTED_EDGE('',*,*,#781,.F.);
#1038=ORIENTED_EDGE('',*,*,#772,.F.);
#1039=ORIENTED_EDGE('',*,*,#773,.T.);
#1040=ORIENTED_EDGE('',*,*,#781,.T.);
#1041=ORIENTED_EDGE('',*,*,#778,.T.);
#1042=ORIENTED_EDGE('',*,*,#776,.T.);
#1043=ORIENTED_EDGE('',*,*,#782,.T.);
#1044=ORIENTED_EDGE('',*,*,#783,.T.);
#1045=ORIENTED_EDGE('',*,*,#784,.T.);
#1046=ORIENTED_EDGE('',*,*,#785,.T.);
#1047=ORIENTED_EDGE('',*,*,#786,.T.);
#1048=ORIENTED_EDGE('',*,*,#787,.T.);
#1049=ORIENTED_EDGE('',*,*,#788,.T.);
#1050=ORIENTED_EDGE('',*,*,#783,.F.);
#1051=ORIENTED_EDGE('',*,*,#789,.T.);
#1052=ORIENTED_EDGE('',*,*,#787,.F.);
#1053=ORIENTED_EDGE('',*,*,#790,.T.);
#1054=ORIENTED_EDGE('',*,*,#791,.T.);
#1055=ORIENTED_EDGE('',*,*,#792,.T.);
#1056=ORIENTED_EDGE('',*,*,#785,.F.);
#1057=ORIENTED_EDGE('',*,*,#793,.T.);
#1058=ORIENTED_EDGE('',*,*,#791,.F.);
#1059=ORIENTED_EDGE('',*,*,#793,.F.);
#1060=ORIENTED_EDGE('',*,*,#794,.T.);
#1061=ORIENTED_EDGE('',*,*,#753,.F.);
#1062=ORIENTED_EDGE('',*,*,#795,.F.);
#1063=ORIENTED_EDGE('',*,*,#784,.F.);
#1064=ORIENTED_EDGE('',*,*,#796,.T.);
#1065=ORIENTED_EDGE('',*,*,#750,.F.);
#1066=ORIENTED_EDGE('',*,*,#794,.F.);
#1067=ORIENTED_EDGE('',*,*,#700,.T.);
#1068=ORIENTED_EDGE('',*,*,#797,.T.);
#1069=ORIENTED_EDGE('',*,*,#798,.T.);
#1070=ORIENTED_EDGE('',*,*,#799,.T.);
#1071=ORIENTED_EDGE('',*,*,#782,.F.);
#1072=ORIENTED_EDGE('',*,*,#792,.F.);
#1073=ORIENTED_EDGE('',*,*,#790,.F.);
#1074=ORIENTED_EDGE('',*,*,#786,.F.);
#1075=ORIENTED_EDGE('',*,*,#800,.F.);
#1076=ORIENTED_EDGE('',*,*,#801,.T.);
#1077=ORIENTED_EDGE('',*,*,#801,.F.);
#1078=ORIENTED_EDGE('',*,*,#802,.F.);
#1079=ORIENTED_EDGE('',*,*,#803,.T.);
#1080=ORIENTED_EDGE('',*,*,#800,.T.);
#1081=ORIENTED_EDGE('',*,*,#803,.F.);
#1082=ORIENTED_EDGE('',*,*,#804,.F.);
#1083=ORIENTED_EDGE('',*,*,#805,.T.);
#1084=ORIENTED_EDGE('',*,*,#805,.F.);
#1085=ORIENTED_EDGE('',*,*,#806,.F.);
#1086=ORIENTED_EDGE('',*,*,#807,.T.);
#1087=ORIENTED_EDGE('',*,*,#804,.T.);
#1088=ORIENTED_EDGE('',*,*,#807,.F.);
#1089=ORIENTED_EDGE('',*,*,#808,.F.);
#1090=ORIENTED_EDGE('',*,*,#809,.T.);
#1091=ORIENTED_EDGE('',*,*,#809,.F.);
#1092=ORIENTED_EDGE('',*,*,#810,.F.);
#1093=ORIENTED_EDGE('',*,*,#811,.T.);
#1094=ORIENTED_EDGE('',*,*,#808,.T.);
#1095=ORIENTED_EDGE('',*,*,#811,.F.);
#1096=ORIENTED_EDGE('',*,*,#812,.F.);
#1097=ORIENTED_EDGE('',*,*,#813,.T.);
#1098=ORIENTED_EDGE('',*,*,#813,.F.);
#1099=ORIENTED_EDGE('',*,*,#814,.F.);
#1100=ORIENTED_EDGE('',*,*,#815,.T.);
#1101=ORIENTED_EDGE('',*,*,#812,.T.);
#1102=ORIENTED_EDGE('',*,*,#815,.F.);
#1103=ORIENTED_EDGE('',*,*,#816,.F.);
#1104=ORIENTED_EDGE('',*,*,#817,.T.);
#1105=ORIENTED_EDGE('',*,*,#757,.F.);
#1106=ORIENTED_EDGE('',*,*,#817,.F.);
#1107=ORIENTED_EDGE('',*,*,#816,.T.);
#1108=ORIENTED_EDGE('',*,*,#810,.T.);
#1109=ORIENTED_EDGE('',*,*,#818,.F.);
#1110=ORIENTED_EDGE('',*,*,#819,.T.);
#1111=ORIENTED_EDGE('',*,*,#756,.F.);
#1112=ORIENTED_EDGE('',*,*,#819,.F.);
#1113=ORIENTED_EDGE('',*,*,#818,.T.);
#1114=ORIENTED_EDGE('',*,*,#806,.T.);
#1115=ORIENTED_EDGE('',*,*,#820,.F.);
#1116=ORIENTED_EDGE('',*,*,#821,.T.);
#1117=ORIENTED_EDGE('',*,*,#755,.F.);
#1118=ORIENTED_EDGE('',*,*,#821,.F.);
#1119=ORIENTED_EDGE('',*,*,#820,.T.);
#1120=ORIENTED_EDGE('',*,*,#802,.T.);
#1121=ORIENTED_EDGE('',*,*,#822,.F.);
#1122=ORIENTED_EDGE('',*,*,#823,.T.);
#1123=ORIENTED_EDGE('',*,*,#754,.F.);
#1124=ORIENTED_EDGE('',*,*,#823,.F.);
#1125=ORIENTED_EDGE('',*,*,#822,.T.);
#1126=ORIENTED_EDGE('',*,*,#814,.T.);
#1127=ORIENTED_EDGE('',*,*,#788,.F.);
#1128=ORIENTED_EDGE('',*,*,#824,.T.);
#1129=ORIENTED_EDGE('',*,*,#751,.F.);
#1130=ORIENTED_EDGE('',*,*,#796,.F.);
#1131=ORIENTED_EDGE('',*,*,#789,.F.);
#1132=ORIENTED_EDGE('',*,*,#795,.T.);
#1133=ORIENTED_EDGE('',*,*,#752,.F.);
#1134=ORIENTED_EDGE('',*,*,#824,.F.);
#1135=ORIENTED_EDGE('',*,*,#769,.T.);
#1136=ORIENTED_EDGE('',*,*,#825,.F.);
#1137=ORIENTED_EDGE('',*,*,#775,.T.);
#1138=ORIENTED_EDGE('',*,*,#747,.T.);
#1139=ORIENTED_EDGE('',*,*,#826,.T.);
#1140=ORIENTED_EDGE('',*,*,#701,.T.);
#1141=ORIENTED_EDGE('',*,*,#799,.F.);
#1142=ORIENTED_EDGE('',*,*,#827,.F.);
#1143=ORIENTED_EDGE('',*,*,#828,.T.);
#1144=ORIENTED_EDGE('',*,*,#827,.T.);
#1145=ORIENTED_EDGE('',*,*,#798,.F.);
#1146=ORIENTED_EDGE('',*,*,#829,.F.);
#1147=ORIENTED_EDGE('',*,*,#830,.T.);
#1148=ORIENTED_EDGE('',*,*,#829,.T.);
#1149=ORIENTED_EDGE('',*,*,#797,.F.);
#1150=ORIENTED_EDGE('',*,*,#699,.F.);
#1151=ORIENTED_EDGE('',*,*,#698,.F.);
#1152=ORIENTED_EDGE('',*,*,#826,.F.);
#1153=ORIENTED_EDGE('',*,*,#828,.F.);
#1154=ORIENTED_EDGE('',*,*,#830,.F.);
#1155=ORIENTED_EDGE('',*,*,#722,.T.);
#1156=ORIENTED_EDGE('',*,*,#726,.T.);
#1157=ORIENTED_EDGE('',*,*,#731,.T.);
#1158=ORIENTED_EDGE('',*,*,#727,.T.);
#1159=ORIENTED_EDGE('',*,*,#742,.T.);
#1160=ORIENTED_EDGE('',*,*,#780,.T.);
#1161=ORIENTED_EDGE('',*,*,#771,.T.);
#1162=ORIENTED_EDGE('',*,*,#825,.T.);
#1163=ORIENTED_EDGE('',*,*,#762,.T.);
#1164=ORIENTED_EDGE('',*,*,#758,.T.);
#1165=ORIENTED_EDGE('',*,*,#770,.T.);
#1166=ORIENTED_EDGE('',*,*,#719,.T.);
#1167=TOROIDAL_SURFACE('',#1255,9.5,1.);
#1168=TOROIDAL_SURFACE('',#1262,9.5,1.);
#1169=ADVANCED_FACE('',(#373),#1167,.T.);
#1170=ADVANCED_FACE('',(#374),#357,.T.);
#1171=ADVANCED_FACE('',(#375),#358,.T.);
#1172=ADVANCED_FACE('',(#376),#1168,.T.);
#1173=ADVANCED_FACE('',(#377),#359,.T.);
#1174=ADVANCED_FACE('',(#378),#360,.T.);
#1175=ADVANCED_FACE('',(#379),#361,.T.);
#1176=ADVANCED_FACE('',(#380),#362,.T.);
#1177=ADVANCED_FACE('',(#381),#31,.F.);
#1178=ADVANCED_FACE('',(#382),#32,.F.);
#1179=ADVANCED_FACE('',(#383),#33,.F.);
#1180=ADVANCED_FACE('',(#384),#363,.F.);
#1181=ADVANCED_FACE('',(#385,#19),#34,.T.);
#1182=ADVANCED_FACE('',(#386),#35,.T.);
#1183=ADVANCED_FACE('',(#387),#36,.F.);
#1184=ADVANCED_FACE('',(#388),#37,.F.);
#1185=ADVANCED_FACE('',(#389),#38,.F.);
#1186=ADVANCED_FACE('',(#390),#364,.F.);
#1187=ADVANCED_FACE('',(#391),#39,.T.);
#1188=ADVANCED_FACE('',(#392),#40,.T.);
#1189=ADVANCED_FACE('',(#393),#41,.T.);
#1190=ADVANCED_FACE('',(#394),#42,.T.);
#1191=ADVANCED_FACE('',(#395),#43,.T.);
#1192=ADVANCED_FACE('',(#396),#44,.F.);
#1193=ADVANCED_FACE('',(#397),#45,.T.);
#1194=ADVANCED_FACE('',(#398),#46,.T.);
#1195=ADVANCED_FACE('',(#399),#47,.T.);
#1196=ADVANCED_FACE('',(#400),#48,.T.);
#1197=ADVANCED_FACE('',(#401),#49,.T.);
#1198=ADVANCED_FACE('',(#402),#50,.F.);
#1199=ADVANCED_FACE('',(#403,#20,#21,#22,#23,#24),#51,.F.);
#1200=ADVANCED_FACE('',(#404),#52,.T.);
#1201=ADVANCED_FACE('',(#405),#53,.T.);
#1202=ADVANCED_FACE('',(#406),#54,.T.);
#1203=ADVANCED_FACE('',(#407),#55,.T.);
#1204=ADVANCED_FACE('',(#408),#56,.T.);
#1205=ADVANCED_FACE('',(#409),#57,.F.);
#1206=ADVANCED_FACE('',(#410),#58,.T.);
#1207=ADVANCED_FACE('',(#411),#59,.T.);
#1208=ADVANCED_FACE('',(#412),#60,.T.);
#1209=ADVANCED_FACE('',(#413),#61,.T.);
#1210=ADVANCED_FACE('',(#414),#62,.T.);
#1211=ADVANCED_FACE('',(#415),#63,.T.);
#1212=ADVANCED_FACE('',(#416),#64,.T.);
#1213=ADVANCED_FACE('',(#417),#65,.T.);
#1214=ADVANCED_FACE('',(#418),#66,.T.);
#1215=ADVANCED_FACE('',(#419),#67,.F.);
#1216=ADVANCED_FACE('',(#420),#68,.F.);
#1217=ADVANCED_FACE('',(#421,#25),#69,.T.);
#1218=ADVANCED_FACE('',(#422),#15,.F.);
#1219=ADVANCED_FACE('',(#423),#365,.F.);
#1220=ADVANCED_FACE('',(#424),#16,.F.);
#1221=ADVANCED_FACE('',(#425),#366,.F.);
#1222=ADVANCED_FACE('',(#426),#17,.F.);
#1223=ADVANCED_FACE('',(#427),#367,.F.);
#1224=ADVANCED_FACE('',(#428),#18,.F.);
#1225=ADVANCED_FACE('',(#429),#368,.F.);
#1226=ADVANCED_FACE('',(#430),#369,.T.);
#1227=ADVANCED_FACE('',(#431,#26),#70,.F.);
#1228=ADVANCED_FACE('',(#432),#370,.T.);
#1229=ADVANCED_FACE('',(#433,#27),#71,.F.);
#1230=ADVANCED_FACE('',(#434),#371,.T.);
#1231=ADVANCED_FACE('',(#435,#28),#72,.F.);
#1232=ADVANCED_FACE('',(#436),#372,.T.);
#1233=ADVANCED_FACE('',(#437,#29),#73,.F.);
#1234=ADVANCED_FACE('',(#438),#74,.F.);
#1235=ADVANCED_FACE('',(#439),#75,.F.);
#1236=ADVANCED_FACE('',(#440),#76,.F.);
#1237=ADVANCED_FACE('',(#441),#77,.T.);
#1238=ADVANCED_FACE('',(#442),#78,.T.);
#1239=ADVANCED_FACE('',(#443),#79,.T.);
#1240=ADVANCED_FACE('',(#444,#30),#80,.F.);
#1241=CLOSED_SHELL('',(#1169,#1170,#1171,#1172,#1173,#1174,#1175,#1176,
#1177,#1178,#1179,#1180,#1181,#1182,#1183,#1184,#1185,#1186,#1187,#1188,
#1189,#1190,#1191,#1192,#1193,#1194,#1195,#1196,#1197,#1198,#1199,#1200,
#1201,#1202,#1203,#1204,#1205,#1206,#1207,#1208,#1209,#1210,#1211,#1212,
#1213,#1214,#1215,#1216,#1217,#1218,#1219,#1220,#1221,#1222,#1223,#1224,
#1225,#1226,#1227,#1228,#1229,#1230,#1231,#1232,#1233,#1234,#1235,#1236,
#1237,#1238,#1239,#1240));
#1242=DERIVED_UNIT_ELEMENT(#1244,1.);
#1243=DERIVED_UNIT_ELEMENT(#2097,-3.);
#1244=(
MASS_UNIT()
NAMED_UNIT(*)
SI_UNIT(.KILO.,.GRAM.)
);
#1245=DERIVED_UNIT((#1242,#1243));
#1246=MEASURE_REPRESENTATION_ITEM('density measure',
POSITIVE_RATIO_MEASURE(7850.),#1245);
#1247=PROPERTY_DEFINITION_REPRESENTATION(#1252,#1249);
#1248=PROPERTY_DEFINITION_REPRESENTATION(#1253,#1250);
#1249=REPRESENTATION('material name',(#1251),#2094);
#1250=REPRESENTATION('density',(#1246),#2094);
#1251=DESCRIPTIVE_REPRESENTATION_ITEM('Steel','Steel');
#1252=PROPERTY_DEFINITION('material property','material name',#2104);
#1253=PROPERTY_DEFINITION('material property','density of part',#2104);
#1254=AXIS2_PLACEMENT_3D('',#1693,#1355,#1356);
#1255=AXIS2_PLACEMENT_3D('',#1694,#1357,#1358);
#1256=AXIS2_PLACEMENT_3D('',#1697,#1359,#1360);
#1257=AXIS2_PLACEMENT_3D('',#1714,#1361,#1362);
#1258=AXIS2_PLACEMENT_3D('',#1729,#1363,#1364);
#1259=AXIS2_PLACEMENT_3D('',#1733,#1366,#1367);
#1260=AXIS2_PLACEMENT_3D('',#1735,#1369,#1370);
#1261=AXIS2_PLACEMENT_3D('',#1739,#1372,#1373);
#1262=AXIS2_PLACEMENT_3D('',#1741,#1375,#1376);
#1263=AXIS2_PLACEMENT_3D('',#1744,#1377,#1378);
#1264=AXIS2_PLACEMENT_3D('',#1761,#1379,#1380);
#1265=AXIS2_PLACEMENT_3D('',#1776,#1381,#1382);
#1266=AXIS2_PLACEMENT_3D('',#1781,#1385,#1386);
#1267=AXIS2_PLACEMENT_3D('',#1782,#1387,#1388);
#1268=AXIS2_PLACEMENT_3D('',#1785,#1391,#1392);
#1269=AXIS2_PLACEMENT_3D('',#1790,#1395,#1396);
#1270=AXIS2_PLACEMENT_3D('',#1791,#1397,#1398);
#1271=AXIS2_PLACEMENT_3D('',#1794,#1401,#1402);
#1272=AXIS2_PLACEMENT_3D('',#1800,#1406,#1407);
#1273=AXIS2_PLACEMENT_3D('',#1804,#1410,#1411);
#1274=AXIS2_PLACEMENT_3D('',#1808,#1414,#1415);
#1275=AXIS2_PLACEMENT_3D('',#1812,#1417,#1418);
#1276=AXIS2_PLACEMENT_3D('',#1814,#1419,#1420);
#1277=AXIS2_PLACEMENT_3D('',#1815,#1421,#1422);
#1278=AXIS2_PLACEMENT_3D('',#1816,#1423,#1424);
#1279=AXIS2_PLACEMENT_3D('',#1825,#1429,#1430);
#1280=AXIS2_PLACEMENT_3D('',#1827,#1432,#1433);
#1281=AXIS2_PLACEMENT_3D('',#1831,#1436,#1437);
#1282=AXIS2_PLACEMENT_3D('',#1835,#1440,#1441);
#1283=AXIS2_PLACEMENT_3D('',#1839,#1444,#1445);
#1284=AXIS2_PLACEMENT_3D('',#1840,#1446,#1447);
#1285=AXIS2_PLACEMENT_3D('',#1841,#1448,#1449);
#1286=AXIS2_PLACEMENT_3D('',#1852,#1455,#1456);
#1287=AXIS2_PLACEMENT_3D('',#1860,#1461,#1462);
#1288=AXIS2_PLACEMENT_3D('',#1866,#1466,#1467);
#1289=AXIS2_PLACEMENT_3D('',#1869,#1470,#1471);
#1290=AXIS2_PLACEMENT_3D('',#1870,#1472,#1473);
#1291=AXIS2_PLACEMENT_3D('',#1876,#1477,#1478);
#1292=AXIS2_PLACEMENT_3D('',#1885,#1483,#1484);
#1293=AXIS2_PLACEMENT_3D('',#1890,#1488,#1489);
#1294=AXIS2_PLACEMENT_3D('',#1898,#1494,#1495);
#1295=AXIS2_PLACEMENT_3D('',#1901,#1498,#1499);
#1296=AXIS2_PLACEMENT_3D('',#1902,#1500,#1501);
#1297=AXIS2_PLACEMENT_3D('',#1909,#1506,#1507);
#1298=AXIS2_PLACEMENT_3D('',#1930,#1518,#1519);
#1299=AXIS2_PLACEMENT_3D('',#1932,#1520,#1521);
#1300=AXIS2_PLACEMENT_3D('',#1934,#1522,#1523);
#1301=AXIS2_PLACEMENT_3D('',#1936,#1524,#1525);
#1302=AXIS2_PLACEMENT_3D('',#1937,#1526,#1527);
#1303=AXIS2_PLACEMENT_3D('',#1946,#1532,#1533);
#1304=AXIS2_PLACEMENT_3D('',#1952,#1537,#1538);
#1305=AXIS2_PLACEMENT_3D('',#1957,#1542,#1543);
#1306=AXIS2_PLACEMENT_3D('',#1960,#1546,#1547);
#1307=AXIS2_PLACEMENT_3D('',#1961,#1548,#1549);
#1308=AXIS2_PLACEMENT_3D('',#1963,#1551,#1552);
#1309=AXIS2_PLACEMENT_3D('',#1972,#1557,#1558);
#1310=AXIS2_PLACEMENT_3D('',#1977,#1562,#1563);
#1311=AXIS2_PLACEMENT_3D('',#1981,#1566,#1567);
#1312=AXIS2_PLACEMENT_3D('',#1984,#1570,#1571);
#1313=AXIS2_PLACEMENT_3D('',#1985,#1572,#1573);
#1314=AXIS2_PLACEMENT_3D('',#1994,#1578,#1579);
#1315=AXIS2_PLACEMENT_3D('',#2000,#1583,#1584);
#1316=AXIS2_PLACEMENT_3D('',#2006,#1588,#1589);
#1317=AXIS2_PLACEMENT_3D('',#2009,#1592,#1593);
#1318=AXIS2_PLACEMENT_3D('',#2012,#1596,#1597);
#1319=AXIS2_PLACEMENT_3D('',#2014,#1599,#1600);
#1320=AXIS2_PLACEMENT_3D('',#2020,#1604,#1605);
#1321=AXIS2_PLACEMENT_3D('',#2022,#1606,#1607);
#1322=AXIS2_PLACEMENT_3D('',#2025,#1609,#1610);
#1323=AXIS2_PLACEMENT_3D('',#2027,#1611,#1612);
#1324=AXIS2_PLACEMENT_3D('',#2029,#1614,#1615);
#1325=AXIS2_PLACEMENT_3D('',#2031,#1616,#1617);
#1326=AXIS2_PLACEMENT_3D('',#2034,#1619,#1620);
#1327=AXIS2_PLACEMENT_3D('',#2036,#1621,#1622);
#1328=AXIS2_PLACEMENT_3D('',#2038,#1624,#1625);
#1329=AXIS2_PLACEMENT_3D('',#2040,#1626,#1627);
#1330=AXIS2_PLACEMENT_3D('',#2043,#1629,#1630);
#1331=AXIS2_PLACEMENT_3D('',#2045,#1631,#1632);
#1332=AXIS2_PLACEMENT_3D('',#2047,#1634,#1635);
#1333=AXIS2_PLACEMENT_3D('',#2049,#1636,#1637);
#1334=AXIS2_PLACEMENT_3D('',#2052,#1639,#1640);
#1335=AXIS2_PLACEMENT_3D('',#2054,#1641,#1642);
#1336=AXIS2_PLACEMENT_3D('',#2056,#1644,#1645);
#1337=AXIS2_PLACEMENT_3D('',#2058,#1646,#1647);
#1338=AXIS2_PLACEMENT_3D('',#2060,#1649,#1650);
#1339=AXIS2_PLACEMENT_3D('',#2061,#1651,#1652);
#1340=AXIS2_PLACEMENT_3D('',#2063,#1653,#1654);
#1341=AXIS2_PLACEMENT_3D('',#2065,#1656,#1657);
#1342=AXIS2_PLACEMENT_3D('',#2066,#1658,#1659);
#1343=AXIS2_PLACEMENT_3D('',#2068,#1660,#1661);
#1344=AXIS2_PLACEMENT_3D('',#2070,#1663,#1664);
#1345=AXIS2_PLACEMENT_3D('',#2071,#1665,#1666);
#1346=AXIS2_PLACEMENT_3D('',#2073,#1667,#1668);
#1347=AXIS2_PLACEMENT_3D('',#2075,#1670,#1671);
#1348=AXIS2_PLACEMENT_3D('',#2076,#1672,#1673);
#1349=AXIS2_PLACEMENT_3D('',#2078,#1675,#1676);
#1350=AXIS2_PLACEMENT_3D('',#2079,#1677,#1678);
#1351=AXIS2_PLACEMENT_3D('',#2081,#1680,#1681);
#1352=AXIS2_PLACEMENT_3D('',#2085,#1684,#1685);
#1353=AXIS2_PLACEMENT_3D('',#2089,#1688,#1689);
#1354=AXIS2_PLACEMENT_3D('',#2091,#1691,#1692);
#1355=DIRECTION('axis',(0.,0.,1.));
#1356=DIRECTION('refdir',(1.,0.,0.));
#1357=DIRECTION('center_axis',(0.,1.,0.));
#1358=DIRECTION('ref_axis',(0.,0.,-1.));
#1359=DIRECTION('center_axis',(0.,-1.,0.));
#1360=DIRECTION('ref_axis',(0.,0.,-1.));
#1361=DIRECTION('center_axis',(0.,1.,0.));
#1362=DIRECTION('ref_axis',(0.,0.,-1.));
#1363=DIRECTION('center_axis',(-1.,0.,0.));
#1364=DIRECTION('ref_axis',(0.,-0.707106781186546,0.707106781186549));
#1365=DIRECTION('',(1.,0.,0.));
#1366=DIRECTION('center_axis',(-0.707106781186549,0.,-0.707106781186546));
#1367=DIRECTION('ref_axis',(0.707106781186546,0.,-0.707106781186549));
#1368=DIRECTION('',(-1.,0.,0.));
#1369=DIRECTION('center_axis',(0.,0.,-1.));
#1370=DIRECTION('ref_axis',(-0.707106781186546,-0.707106781186549,0.));
#1371=DIRECTION('',(0.,0.,1.));
#1372=DIRECTION('center_axis',(0.707106781186548,0.,-0.707106781186548));
#1373=DIRECTION('ref_axis',(0.707106781186547,0.,0.707106781186547));
#1374=DIRECTION('',(0.,0.,-1.));
#1375=DIRECTION('center_axis',(0.,1.,0.));
#1376=DIRECTION('ref_axis',(0.,0.,1.));
#1377=DIRECTION('center_axis',(0.,-1.,0.));
#1378=DIRECTION('ref_axis',(0.,0.,1.));
#1379=DIRECTION('center_axis',(0.,1.,0.));
#1380=DIRECTION('ref_axis',(0.,0.,1.));
#1381=DIRECTION('center_axis',(1.,0.,0.));
#1382=DIRECTION('ref_axis',(0.,-0.707106781186549,-0.707106781186546));
#1383=DIRECTION('',(1.,0.,0.));
#1384=DIRECTION('',(-1.,0.,0.));
#1385=DIRECTION('center_axis',(0.707106781186546,0.,0.707106781186549));
#1386=DIRECTION('ref_axis',(-0.707106781186549,0.,0.707106781186546));
#1387=DIRECTION('center_axis',(1.,0.,0.));
#1388=DIRECTION('ref_axis',(0.,-0.707106781186549,-0.707106781186546));
#1389=DIRECTION('',(-1.,0.,0.));
#1390=DIRECTION('',(1.,0.,0.));
#1391=DIRECTION('center_axis',(0.,0.,1.));
#1392=DIRECTION('ref_axis',(0.707106781186549,-0.707106781186546,0.));
#1393=DIRECTION('',(0.,0.,1.));
#1394=DIRECTION('',(0.,0.,-1.));
#1395=DIRECTION('center_axis',(-0.707106781186548,0.,0.707106781186548));
#1396=DIRECTION('ref_axis',(-0.707106781186547,0.,-0.707106781186547));
#1397=DIRECTION('center_axis',(-1.,0.,0.));
#1398=DIRECTION('ref_axis',(0.,-0.707106781186546,0.707106781186549));
#1399=DIRECTION('',(-1.,0.,0.));
#1400=DIRECTION('',(1.,0.,0.));
#1401=DIRECTION('center_axis',(0.,0.,-1.));
#1402=DIRECTION('ref_axis',(-1.,0.,0.));
#1403=DIRECTION('',(0.,1.,0.));
#1404=DIRECTION('',(1.,0.,0.));
#1405=DIRECTION('',(0.,1.,0.));
#1406=DIRECTION('center_axis',(1.,0.,0.));
#1407=DIRECTION('ref_axis',(0.,0.,-1.));
#1408=DIRECTION('',(0.,1.,0.));
#1409=DIRECTION('',(0.,0.,1.));
#1410=DIRECTION('center_axis',(0.,0.,1.));
#1411=DIRECTION('ref_axis',(1.,0.,0.));
#1412=DIRECTION('',(0.,1.,0.));
#1413=DIRECTION('',(-1.,0.,0.));
#1414=DIRECTION('center_axis',(0.,1.,0.));
#1415=DIRECTION('ref_axis',(1.,0.,0.));
#1416=DIRECTION('',(0.,1.,0.));
#1417=DIRECTION('center_axis',(0.,-1.,0.));
#1418=DIRECTION('ref_axis',(1.,0.,0.));
#1419=DIRECTION('center_axis',(0.,1.,0.));
#1420=DIRECTION('ref_axis',(1.,0.,0.));
#1421=DIRECTION('center_axis',(0.,-1.,0.));
#1422=DIRECTION('ref_axis',(1.,0.,0.));
#1423=DIRECTION('center_axis',(0.,-1.,0.));
#1424=DIRECTION('ref_axis',(1.,0.,0.));
#1425=DIRECTION('',(1.,0.,0.));
#1426=DIRECTION('',(0.,0.,1.));
#1427=DIRECTION('',(1.,0.,0.));
#1428=DIRECTION('',(0.,0.,1.));
#1429=DIRECTION('center_axis',(0.,-1.,0.));
#1430=DIRECTION('ref_axis',(1.,0.,0.));
#1431=DIRECTION('',(-1.,0.,0.));
#1432=DIRECTION('center_axis',(0.,0.,1.));
#1433=DIRECTION('ref_axis',(1.,0.,0.));
#1434=DIRECTION('',(0.,1.,0.));
#1435=DIRECTION('',(-1.,0.,0.));
#1436=DIRECTION('center_axis',(-1.,0.,0.));
#1437=DIRECTION('ref_axis',(0.,0.,1.));
#1438=DIRECTION('',(0.,1.,0.));
#1439=DIRECTION('',(0.,0.,-1.));
#1440=DIRECTION('center_axis',(0.,0.,-1.));
#1441=DIRECTION('ref_axis',(-1.,0.,0.));
#1442=DIRECTION('',(0.,1.,0.));
#1443=DIRECTION('',(1.,0.,0.));
#1444=DIRECTION('center_axis',(0.,1.,0.));
#1445=DIRECTION('ref_axis',(1.,0.,0.));
#1446=DIRECTION('center_axis',(0.,-1.,0.));
#1447=DIRECTION('ref_axis',(1.,0.,0.));
#1448=DIRECTION('center_axis',(0.,-1.,0.));
#1449=DIRECTION('ref_axis',(-1.,0.,0.));
#1450=DIRECTION('',(1.,0.,0.));
#1451=DIRECTION('',(0.,0.,1.));
#1452=DIRECTION('',(0.,0.,-1.));
#1453=DIRECTION('',(-1.,0.,0.));
#1454=DIRECTION('',(0.,0.,-1.));
#1455=DIRECTION('center_axis',(1.,0.,0.));
#1456=DIRECTION('ref_axis',(0.,-1.,0.));
#1457=DIRECTION('',(0.,1.,0.));
#1458=DIRECTION('',(0.,-1.,0.));
#1459=DIRECTION('',(0.,0.,-1.));
#1460=DIRECTION('',(0.,0.,-1.));
#1461=DIRECTION('center_axis',(0.,1.,0.));
#1462=DIRECTION('ref_axis',(1.,0.,0.));
#1463=DIRECTION('',(-1.,0.,0.));
#1464=DIRECTION('',(1.,0.,0.));
#1465=DIRECTION('',(0.,0.,-1.));
#1466=DIRECTION('center_axis',(-1.,2.22044604925031E-16,0.));
#1467=DIRECTION('ref_axis',(2.22044604925031E-16,1.,0.));
#1468=DIRECTION('',(-4.93432455388958E-17,-1.,0.));
#1469=DIRECTION('',(2.22044604925031E-16,1.,0.));
#1470=DIRECTION('center_axis',(0.,0.,-1.));
#1471=DIRECTION('ref_axis',(-1.,0.,0.));
#1472=DIRECTION('center_axis',(-1.,4.93432455388958E-17,0.));
#1473=DIRECTION('ref_axis',(-4.93432455388958E-17,-1.,0.));
#1474=DIRECTION('',(4.93432455388958E-17,1.,0.));
#1475=DIRECTION('',(0.,0.,-1.));
#1476=DIRECTION('',(-4.93432455388958E-17,-1.,0.));
#1477=DIRECTION('center_axis',(0.,-1.,0.));
#1478=DIRECTION('ref_axis',(-1.,0.,0.));
#1479=DIRECTION('',(1.,0.,0.));
#1480=DIRECTION('',(0.,0.,-1.));
#1481=DIRECTION('',(-1.,0.,0.));
#1482=DIRECTION('',(0.,0.,-1.));
#1483=DIRECTION('center_axis',(-1.,0.,0.));
#1484=DIRECTION('ref_axis',(0.,1.,0.));
#1485=DIRECTION('',(-4.93432455388958E-17,-1.,0.));
#1486=DIRECTION('',(0.,0.,-1.));
#1487=DIRECTION('',(0.,1.,0.));
#1488=DIRECTION('center_axis',(1.,0.,0.));
#1489=DIRECTION('ref_axis',(0.,-1.,0.));
#1490=DIRECTION('',(0.,1.,0.));
#1491=DIRECTION('',(0.,0.,1.));
#1492=DIRECTION('',(0.,-1.,0.));
#1493=DIRECTION('',(0.,0.,-1.));
#1494=DIRECTION('center_axis',(0.,1.,0.));
#1495=DIRECTION('ref_axis',(1.,0.,0.));
#1496=DIRECTION('',(-1.,0.,0.));
#1497=DIRECTION('',(1.,0.,0.));
#1498=DIRECTION('center_axis',(0.,0.,-1.));
#1499=DIRECTION('ref_axis',(-1.,0.,0.));
#1500=DIRECTION('center_axis',(0.,-1.,0.));
#1501=DIRECTION('ref_axis',(1.,0.,0.));
#1502=DIRECTION('',(-1.,0.,0.));
#1503=DIRECTION('',(0.,0.,-1.));
#1504=DIRECTION('',(1.,0.,0.));
#1505=DIRECTION('',(-1.,0.,0.));
#1506=DIRECTION('center_axis',(0.,0.,1.));
#1507=DIRECTION('ref_axis',(1.,0.,0.));
#1508=DIRECTION('',(1.,0.,0.));
#1509=DIRECTION('',(0.,-1.,0.));
#1510=DIRECTION('',(1.,0.,0.));
#1511=DIRECTION('',(0.,-1.,0.));
#1512=DIRECTION('',(-1.,0.,0.));
#1513=DIRECTION('',(0.,-1.,0.));
#1514=DIRECTION('',(0.,1.,0.));
#1515=DIRECTION('',(-1.,0.,0.));
#1516=DIRECTION('',(0.,-1.,0.));
#1517=DIRECTION('',(1.,0.,0.));
#1518=DIRECTION('center_axis',(0.,0.,1.));
#1519=DIRECTION('ref_axis',(-1.,0.,0.));
#1520=DIRECTION('center_axis',(0.,0.,1.));
#1521=DIRECTION('ref_axis',(-1.,0.,0.));
#1522=DIRECTION('center_axis',(0.,0.,1.));
#1523=DIRECTION('ref_axis',(-1.,0.,0.));
#1524=DIRECTION('center_axis',(0.,0.,1.));
#1525=DIRECTION('ref_axis',(-1.,0.,0.));
#1526=DIRECTION('center_axis',(-3.55271367880048E-15,1.,0.));
#1527=DIRECTION('ref_axis',(1.,3.55271367880048E-15,0.));
#1528=DIRECTION('',(-1.,0.,0.));
#1529=DIRECTION('',(0.,0.,-1.));
#1530=DIRECTION('',(1.,3.55271367880048E-15,0.));
#1531=DIRECTION('',(0.,0.,-1.));
#1532=DIRECTION('center_axis',(1.,0.,0.));
#1533=DIRECTION('ref_axis',(0.,-1.,0.));
#1534=DIRECTION('',(0.,1.,0.));
#1535=DIRECTION('',(0.,0.,-1.));
#1536=DIRECTION('',(0.,-1.,0.));
#1537=DIRECTION('center_axis',(-1.,0.,0.));
#1538=DIRECTION('ref_axis',(0.,1.,0.));
#1539=DIRECTION('',(0.,0.,1.));
#1540=DIRECTION('',(0.,1.,0.));
#1541=DIRECTION('',(0.,0.,-1.));
#1542=DIRECTION('center_axis',(0.,-1.,0.));
#1543=DIRECTION('ref_axis',(-1.,0.,0.));
#1544=DIRECTION('',(-1.,0.,0.));
#1545=DIRECTION('',(0.,0.,-1.));
#1546=DIRECTION('center_axis',(0.,0.,-1.));
#1547=DIRECTION('ref_axis',(-1.,0.,0.));
#1548=DIRECTION('center_axis',(0.,1.,0.));
#1549=DIRECTION('ref_axis',(-1.,0.,0.));
#1550=DIRECTION('',(-1.,0.,0.));
#1551=DIRECTION('center_axis',(1.,0.,0.));
#1552=DIRECTION('ref_axis',(0.,-1.,0.));
#1553=DIRECTION('',(0.,1.,0.));
#1554=DIRECTION('',(0.,0.,-1.));
#1555=DIRECTION('',(0.,-1.,0.));
#1556=DIRECTION('',(0.,0.,-1.));
#1557=DIRECTION('center_axis',(0.,1.,0.));
#1558=DIRECTION('ref_axis',(1.,0.,0.));
#1559=DIRECTION('',(0.,0.,1.));
#1560=DIRECTION('',(1.,0.,0.));
#1561=DIRECTION('',(0.,0.,-1.));
#1562=DIRECTION('center_axis',(-1.,0.,0.));
#1563=DIRECTION('ref_axis',(0.,1.,0.));
#1564=DIRECTION('',(0.,1.,0.));
#1565=DIRECTION('',(0.,0.,-1.));
#1566=DIRECTION('center_axis',(-7.77156117237604E-16,-1.,0.));
#1567=DIRECTION('ref_axis',(-1.,7.77156117237604E-16,0.));
#1568=DIRECTION('',(1.,0.,0.));
#1569=DIRECTION('',(-1.,7.77156117237604E-16,0.));
#1570=DIRECTION('center_axis',(0.,0.,-1.));
#1571=DIRECTION('ref_axis',(-1.,0.,0.));
#1572=DIRECTION('center_axis',(-0.707106781186548,0.,0.707106781186548));
#1573=DIRECTION('ref_axis',(0.707106781186548,0.,0.707106781186548));
#1574=DIRECTION('',(0.,1.,0.));
#1575=DIRECTION('',(-0.577350269189639,-0.577350269189619,-0.577350269189619));
#1576=DIRECTION('',(0.,-1.,0.));
#1577=DIRECTION('',(0.577350269189632,-0.577350269189624,0.577350269189622));
#1578=DIRECTION('center_axis',(0.,-0.707106781186548,0.707106781186548));
#1579=DIRECTION('ref_axis',(1.,0.,0.));
#1580=DIRECTION('',(-1.,0.,0.));
#1581=DIRECTION('',(0.577350269189636,-0.577350269189621,-0.577350269189621));
#1582=DIRECTION('',(1.,0.,0.));
#1583=DIRECTION('center_axis',(0.707106781186551,0.,0.707106781186544));
#1584=DIRECTION('ref_axis',(0.707106781186544,0.,-0.707106781186551));
#1585=DIRECTION('',(0.,1.,0.));
#1586=DIRECTION('',(0.,-1.,0.));
#1587=DIRECTION('',(0.577350269189628,0.577350269189626,-0.577350269189623));
#1588=DIRECTION('center_axis',(0.,0.707106781186546,0.707106781186549));
#1589=DIRECTION('ref_axis',(1.,0.,0.));
#1590=DIRECTION('',(1.,0.,0.));
#1591=DIRECTION('',(-1.,0.,0.));
#1592=DIRECTION('center_axis',(0.,-1.,0.));
#1593=DIRECTION('ref_axis',(-1.,0.,0.));
#1594=DIRECTION('',(0.,0.,-1.));
#1595=DIRECTION('',(0.,0.,-1.));
#1596=DIRECTION('center_axis',(1.,0.,0.));
#1597=DIRECTION('ref_axis',(0.,-1.,0.));
#1598=DIRECTION('',(0.,0.,-1.));
#1599=DIRECTION('center_axis',(0.,0.,1.));
#1600=DIRECTION('ref_axis',(1.,0.,0.));
#1601=DIRECTION('',(0.,1.,0.));
#1602=DIRECTION('',(-1.,0.,0.));
#1603=DIRECTION('',(-4.93432455388958E-17,-1.,0.));
#1604=DIRECTION('center_axis',(0.,0.,-1.));
#1605=DIRECTION('ref_axis',(-1.,0.,0.));
#1606=DIRECTION('center_axis',(0.,0.,1.));
#1607=DIRECTION('ref_axis',(-1.,0.,0.));
#1608=DIRECTION('',(-0.857167300702112,-1.04972719113862E-16,0.515038074910054));
#1609=DIRECTION('center_axis',(0.,0.,1.));
#1610=DIRECTION('ref_axis',(-1.,0.,0.));
#1611=DIRECTION('center_axis',(0.,0.,1.));
#1612=DIRECTION('ref_axis',(-1.,0.,0.));
#1613=DIRECTION('',(0.,0.,1.));
#1614=DIRECTION('center_axis',(0.,0.,-1.));
#1615=DIRECTION('ref_axis',(-1.,0.,0.));
#1616=DIRECTION('center_axis',(0.,0.,1.));
#1617=DIRECTION('ref_axis',(-1.,0.,0.));
#1618=DIRECTION('',(-0.857167300702112,-1.04972719113862E-16,0.515038074910054));
#1619=DIRECTION('center_axis',(0.,0.,1.));
#1620=DIRECTION('ref_axis',(-1.,0.,0.));
#1621=DIRECTION('center_axis',(0.,0.,1.));
#1622=DIRECTION('ref_axis',(-1.,0.,0.));
#1623=DIRECTION('',(0.,0.,1.));
#1624=DIRECTION('center_axis',(0.,0.,-1.));
#1625=DIRECTION('ref_axis',(-1.,0.,0.));
#1626=DIRECTION('center_axis',(0.,0.,1.));
#1627=DIRECTION('ref_axis',(-1.,0.,0.));
#1628=DIRECTION('',(-0.857167300702112,-1.04972719113862E-16,0.515038074910054));
#1629=DIRECTION('center_axis',(0.,0.,1.));
#1630=DIRECTION('ref_axis',(-1.,0.,0.));
#1631=DIRECTION('center_axis',(0.,0.,1.));
#1632=DIRECTION('ref_axis',(-1.,0.,0.));
#1633=DIRECTION('',(0.,0.,1.));
#1634=DIRECTION('center_axis',(0.,0.,-1.));
#1635=DIRECTION('ref_axis',(-1.,0.,0.));
#1636=DIRECTION('center_axis',(0.,0.,1.));
#1637=DIRECTION('ref_axis',(-1.,0.,0.));
#1638=DIRECTION('',(-0.857167300702112,-1.04972719113862E-16,0.515038074910054));
#1639=DIRECTION('center_axis',(0.,0.,1.));
#1640=DIRECTION('ref_axis',(-1.,0.,0.));
#1641=DIRECTION('center_axis',(0.,0.,1.));
#1642=DIRECTION('ref_axis',(-1.,0.,0.));
#1643=DIRECTION('',(0.,0.,1.));
#1644=DIRECTION('center_axis',(0.,0.,-1.));
#1645=DIRECTION('ref_axis',(-1.,0.,0.));
#1646=DIRECTION('center_axis',(0.,0.,-1.));
#1647=DIRECTION('ref_axis',(-1.,0.,0.));
#1648=DIRECTION('',(0.,0.,1.));
#1649=DIRECTION('center_axis',(0.,0.,1.));
#1650=DIRECTION('ref_axis',(-1.,0.,0.));
#1651=DIRECTION('center_axis',(0.,0.,-1.));
#1652=DIRECTION('ref_axis',(-1.,0.,0.));
#1653=DIRECTION('center_axis',(0.,0.,-1.));
#1654=DIRECTION('ref_axis',(-1.,0.,0.));
#1655=DIRECTION('',(0.,0.,1.));
#1656=DIRECTION('center_axis',(0.,0.,1.));
#1657=DIRECTION('ref_axis',(-1.,0.,0.));
#1658=DIRECTION('center_axis',(0.,0.,-1.));
#1659=DIRECTION('ref_axis',(-1.,0.,0.));
#1660=DIRECTION('center_axis',(0.,0.,-1.));
#1661=DIRECTION('ref_axis',(-1.,0.,0.));
#1662=DIRECTION('',(0.,0.,1.));
#1663=DIRECTION('center_axis',(0.,0.,1.));
#1664=DIRECTION('ref_axis',(-1.,0.,0.));
#1665=DIRECTION('center_axis',(0.,0.,-1.));
#1666=DIRECTION('ref_axis',(-1.,0.,0.));
#1667=DIRECTION('center_axis',(0.,0.,-1.));
#1668=DIRECTION('ref_axis',(-1.,0.,0.));
#1669=DIRECTION('',(0.,0.,1.));
#1670=DIRECTION('center_axis',(0.,0.,1.));
#1671=DIRECTION('ref_axis',(-1.,0.,0.));
#1672=DIRECTION('center_axis',(0.,1.,0.));
#1673=DIRECTION('ref_axis',(1.,0.,0.));
#1674=DIRECTION('',(0.,0.,-1.));
#1675=DIRECTION('center_axis',(-1.,0.,0.));
#1676=DIRECTION('ref_axis',(0.,1.,0.));
#1677=DIRECTION('center_axis',(1.,0.,0.));
#1678=DIRECTION('ref_axis',(0.,1.,0.));
#1679=DIRECTION('',(0.,1.,0.));
#1680=DIRECTION('center_axis',(-1.,4.93432455388958E-17,0.));
#1681=DIRECTION('ref_axis',(-4.93432455388958E-17,-1.,0.));
#1682=DIRECTION('',(-4.93432455388958E-17,-1.,0.));
#1683=DIRECTION('',(0.,0.,1.));
#1684=DIRECTION('center_axis',(0.,1.,0.));
#1685=DIRECTION('ref_axis',(-1.,0.,0.));
#1686=DIRECTION('',(-1.,0.,0.));
#1687=DIRECTION('',(0.,0.,1.));
#1688=DIRECTION('center_axis',(1.,0.,0.));
#1689=DIRECTION('ref_axis',(0.,1.,0.));
#1690=DIRECTION('',(0.,1.,0.));
#1691=DIRECTION('center_axis',(0.,0.,1.));
#1692=DIRECTION('ref_axis',(1.,0.,0.));
#1693=CARTESIAN_POINT('',(0.,0.,0.));
#1694=CARTESIAN_POINT('Origin',(35.0000005215406,1.02861829960555,40.0000005960464));
#1695=CARTESIAN_POINT('',(26.3831568284226,0.028618299605554,36.));
#1696=CARTESIAN_POINT('',(43.6168442146587,0.028618299605554,36.));
#1697=CARTESIAN_POINT('Origin',(35.0000005215406,0.028618299605554,40.0000005960464));
#1698=CARTESIAN_POINT('',(42.9529871569953,1.02861829960555,37.));
#1699=CARTESIAN_POINT('Ctrl Pts',(43.6168442146587,0.028618299605554,36.));
#1700=CARTESIAN_POINT('Ctrl Pts',(43.6158936958392,0.028618299605554,36.0014891769059));
#1701=CARTESIAN_POINT('Ctrl Pts',(43.614943065107,0.0286216260773157,36.0029782827388));
#1702=CARTESIAN_POINT('Ctrl Pts',(43.5577299103561,0.0290219280943973,36.0925844099652));
#1703=CARTESIAN_POINT('Ctrl Pts',(43.5010549576558,0.041061512873566,36.1804689078912));
#1704=CARTESIAN_POINT('Ctrl Pts',(43.3906914105493,0.0877893551770551,36.3499366691348));
#1705=CARTESIAN_POINT('Ctrl Pts',(43.336892146802,0.122187197817268,36.4317131326791));
#1706=CARTESIAN_POINT('Ctrl Pts',(43.2152838025167,0.230432255276601,36.6149171572431));
#1707=CARTESIAN_POINT('Ctrl Pts',(43.1499197251867,0.314313409073967,36.7119785014624));
#1708=CARTESIAN_POINT('Ctrl Pts',(43.0502246870014,0.504632717444072,36.8587223820824));
#1709=CARTESIAN_POINT('Ctrl Pts',(43.0131195088418,0.604131584390731,36.9127770637364));
#1710=CARTESIAN_POINT('Ctrl Pts',(42.9651389911713,0.814230671573973,36.9824628699207));
#1711=CARTESIAN_POINT('Ctrl Pts',(42.9529871569953,0.920416210413227,37.));
#1712=CARTESIAN_POINT('Ctrl Pts',(42.9529871569953,1.02861829960555,37.));
#1713=CARTESIAN_POINT('',(27.0470138860859,1.02861829960555,37.));
#1714=CARTESIAN_POINT('Origin',(35.0000005215406,1.02861829960555,40.0000005960464));
#1715=CARTESIAN_POINT('Ctrl Pts',(26.3831568284226,0.028618299605554,36.));
#1716=CARTESIAN_POINT('Ctrl Pts',(26.384107347242,0.028618299605554,36.0014891769058));
#1717=CARTESIAN_POINT('Ctrl Pts',(26.3850579779744,0.0286216260773164,36.0029782827389));
#1718=CARTESIAN_POINT('Ctrl Pts',(26.4422711327229,0.029021928094382,36.0925844099621));
#1719=CARTESIAN_POINT('Ctrl Pts',(26.4989460854251,0.0410615128733999,36.1804689078906));
#1720=CARTESIAN_POINT('Ctrl Pts',(26.609309632532,0.0877893551770494,36.3499366691348));
#1721=CARTESIAN_POINT('Ctrl Pts',(26.6631088962792,0.122187197817261,36.4317131326791));
#1722=CARTESIAN_POINT('Ctrl Pts',(26.7847172405645,0.230432255276604,36.6149171572431));
#1723=CARTESIAN_POINT('Ctrl Pts',(26.8500813178946,0.31431340907397,36.7119785014624));
#1724=CARTESIAN_POINT('Ctrl Pts',(26.9497763560799,0.504632717444083,36.8587223820824));
#1725=CARTESIAN_POINT('Ctrl Pts',(26.9868815342395,0.604131584390738,36.9127770637363));
#1726=CARTESIAN_POINT('Ctrl Pts',(27.03486205191,0.814230671573992,36.9824628699207));
#1727=CARTESIAN_POINT('Ctrl Pts',(27.0470138860859,0.920416210413236,37.));
#1728=CARTESIAN_POINT('Ctrl Pts',(27.0470138860859,1.02861829960555,37.));
#1729=CARTESIAN_POINT('Origin',(19.7999958693981,1.02861829960555,36.));
#1730=CARTESIAN_POINT('',(48.7999958693981,0.028618299605554,36.));
#1731=CARTESIAN_POINT('',(19.7999958693981,0.028618299605554,36.));
#1732=CARTESIAN_POINT('',(47.7999958693981,1.02861829960555,37.));
#1733=CARTESIAN_POINT('Origin',(48.7999958693981,1.02861829960555,36.));
#1734=CARTESIAN_POINT('',(19.7999958693981,1.02861829960555,37.));
#1735=CARTESIAN_POINT('Origin',(48.7999958693981,1.02861829960555,21.5));
#1736=CARTESIAN_POINT('',(48.7999958693981,0.028618299605554,44.));
#1737=CARTESIAN_POINT('',(48.7999958693981,0.028618299605554,21.5));
#1738=CARTESIAN_POINT('',(47.7999958693981,1.02861829960555,43.));
#1739=CARTESIAN_POINT('Origin',(48.7999958693981,1.02861829960555,44.));
#1740=CARTESIAN_POINT('',(47.7999958693981,1.02861829960555,21.5));
#1741=CARTESIAN_POINT('Origin',(35.0000005215406,1.02861829960555,40.0000005960464));
#1742=CARTESIAN_POINT('',(43.6168447680366,0.028618299605554,44.));
#1743=CARTESIAN_POINT('',(26.3831562750446,0.028618299605554,44.));
#1744=CARTESIAN_POINT('Origin',(35.0000005215406,0.028618299605554,40.0000005960464));
#1745=CARTESIAN_POINT('',(27.0470134364085,1.02861829960555,43.));
#1746=CARTESIAN_POINT('Ctrl Pts',(26.3831562750446,0.028618299605554,44.));
#1747=CARTESIAN_POINT('Ctrl Pts',(26.3841067940077,0.028618299605554,43.9985108230963));
#1748=CARTESIAN_POINT('Ctrl Pts',(26.3850574248834,0.0286216260773054,43.9970217172658));
#1749=CARTESIAN_POINT('Ctrl Pts',(26.4422705921017,0.0290219281199357,43.9074155841827));
#1750=CARTESIAN_POINT('Ctrl Pts',(26.4989455573095,0.0410615144730272,43.8195310804054));
#1751=CARTESIAN_POINT('Ctrl Pts',(26.6093091282818,0.0877893628398565,43.6500633088927));
#1752=CARTESIAN_POINT('Ctrl Pts',(26.663108403567,0.122187209880923,43.5682868406688));
#1753=CARTESIAN_POINT('Ctrl Pts',(26.7847167667301,0.23043227574646,43.3850828167156));
#1754=CARTESIAN_POINT('Ctrl Pts',(26.8500808519016,0.314313431351037,43.2880214763266));
#1755=CARTESIAN_POINT('Ctrl Pts',(26.9497758996133,0.504632739449265,43.1412776051564));
#1756=CARTESIAN_POINT('Ctrl Pts',(26.9868810806737,0.60413160341711,43.0872229279315));
#1757=CARTESIAN_POINT('Ctrl Pts',(27.0348616014947,0.814230682413528,43.0175371283351));
#1758=CARTESIAN_POINT('Ctrl Pts',(27.0470134364085,0.920416215782774,43.));
#1759=CARTESIAN_POINT('Ctrl Pts',(27.0470134364085,1.02861829960555,43.));
#1760=CARTESIAN_POINT('',(42.9529876066728,1.02861829960555,43.));
#1761=CARTESIAN_POINT('Origin',(35.0000005215406,1.02861829960555,40.0000005960464));
#1762=CARTESIAN_POINT('Ctrl Pts',(42.9529876066728,1.02861829960555,43.));
#1763=CARTESIAN_POINT('Ctrl Pts',(42.9529876066728,0.92041621578274,43.));
#1764=CARTESIAN_POINT('Ctrl Pts',(42.9651394415866,0.814230682413464,43.0175371283351));
#1765=CARTESIAN_POINT('Ctrl Pts',(43.0131199624076,0.604131603417126,43.0872229279315));
#1766=CARTESIAN_POINT('Ctrl Pts',(43.0502251434679,0.504632739449292,43.1412776051564));
#1767=CARTESIAN_POINT('Ctrl Pts',(43.1499201911796,0.314313431351037,43.2880214763266));
#1768=CARTESIAN_POINT('Ctrl Pts',(43.2152842763511,0.230432275746459,43.3850828167156));
#1769=CARTESIAN_POINT('Ctrl Pts',(43.3368926395143,0.12218720988093,43.5682868406688));
#1770=CARTESIAN_POINT('Ctrl Pts',(43.3906919147994,0.0877893628398626,43.6500633088927));
#1771=CARTESIAN_POINT('Ctrl Pts',(43.5010554857713,0.041061514473232,43.8195310804047));
#1772=CARTESIAN_POINT('Ctrl Pts',(43.5577304509765,0.0290219281199553,43.9074155841788));
#1773=CARTESIAN_POINT('Ctrl Pts',(43.614943618198,0.0286216260773046,43.997021717266));
#1774=CARTESIAN_POINT('Ctrl Pts',(43.6158942490735,0.028618299605554,43.9985108230961));
#1775=CARTESIAN_POINT('Ctrl Pts',(43.6168447680366,0.028618299605554,44.));
#1776=CARTESIAN_POINT('Origin',(6.7999958693981,1.02861829960555,44.));
#1777=CARTESIAN_POINT('',(21.7999958693981,1.02861829960555,43.));
#1778=CARTESIAN_POINT('',(6.7999958693981,1.02861829960555,43.));
#1779=CARTESIAN_POINT('',(20.7999958693981,0.028618299605554,44.));
#1780=CARTESIAN_POINT('',(6.7999958693981,0.028618299605554,44.));
#1781=CARTESIAN_POINT('Origin',(20.7999958693981,1.02861829960555,44.));
#1782=CARTESIAN_POINT('Origin',(17.3764917380354,1.02861829960555,44.));
#1783=CARTESIAN_POINT('',(17.3764917380354,0.028618299605554,44.));
#1784=CARTESIAN_POINT('',(17.3764917380354,1.02861829960555,43.));
#1785=CARTESIAN_POINT('Origin',(20.7999958693981,1.02861829960555,18.5));
#1786=CARTESIAN_POINT('',(21.7999958693981,1.02861829960555,37.));
#1787=CARTESIAN_POINT('',(21.7999958693981,1.02861829960555,18.5));
#1788=CARTESIAN_POINT('',(20.7999958693981,0.028618299605554,36.));
#1789=CARTESIAN_POINT('',(20.7999958693981,0.028618299605554,18.5));
#1790=CARTESIAN_POINT('Origin',(20.7999958693981,1.02861829960555,36.));
#1791=CARTESIAN_POINT('Origin',(9.42350487774202,1.02861829960555,36.));
#1792=CARTESIAN_POINT('',(9.42350487774202,1.02861829960555,37.));
#1793=CARTESIAN_POINT('',(9.42350487774202,0.028618299605554,36.));
#1794=CARTESIAN_POINT('Origin',(47.7999958693981,0.028618299605554,37.));
#1795=CARTESIAN_POINT('',(47.7999958693981,3.02861829960555,37.));
#1796=CARTESIAN_POINT('',(47.7999958693981,0.028618299605554,37.));
#1797=CARTESIAN_POINT('',(42.9529871569953,3.02861829960555,37.));
#1798=CARTESIAN_POINT('',(19.7999958693981,3.02861829960555,37.));
#1799=CARTESIAN_POINT('',(42.9529871569953,0.028618299605554,37.));
#1800=CARTESIAN_POINT('Origin',(47.7999958693981,0.028618299605554,43.));
#1801=CARTESIAN_POINT('',(47.7999958693981,3.02861829960555,43.));
#1802=CARTESIAN_POINT('',(47.7999958693981,0.028618299605554,43.));
#1803=CARTESIAN_POINT('',(47.7999958693981,3.02861829960555,21.5));
#1804=CARTESIAN_POINT('Origin',(42.9529876066728,0.028618299605554,43.));
#1805=CARTESIAN_POINT('',(42.9529876066728,3.02861829960555,43.));
#1806=CARTESIAN_POINT('',(42.9529876066728,0.028618299605554,43.));
#1807=CARTESIAN_POINT('',(17.3764917380354,3.02861829960555,43.));
#1808=CARTESIAN_POINT('Origin',(35.0000005215406,0.028618299605554,40.0000005960464));
#1809=CARTESIAN_POINT('',(27.0470134364085,3.02861829960555,43.));
#1810=CARTESIAN_POINT('',(27.0470134364085,0.028618299605554,43.));
#1811=CARTESIAN_POINT('',(30.1781742757444,3.02861829960555,47.));
#1812=CARTESIAN_POINT('Origin',(35.0000005215406,3.02861829960555,40.0000005960464));
#1813=CARTESIAN_POINT('',(39.8218267673369,3.02861829960555,47.));
#1814=CARTESIAN_POINT('Origin',(35.0000005215406,3.02861829960555,40.0000005960464));
#1815=CARTESIAN_POINT('Origin',(35.0000005215406,3.02861829960555,40.0000005960464));
#1816=CARTESIAN_POINT('Origin',(-8.2000041306019,0.028618299605554,0.));
#1817=CARTESIAN_POINT('',(-8.2000041306019,0.028618299605554,0.));
#1818=CARTESIAN_POINT('',(201.799995869398,0.028618299605554,0.));
#1819=CARTESIAN_POINT('',(-8.2000041306019,0.028618299605554,0.));
#1820=CARTESIAN_POINT('',(201.799995869398,0.028618299605554,50.));
#1821=CARTESIAN_POINT('',(201.799995869398,0.028618299605554,0.));
#1822=CARTESIAN_POINT('',(-8.2000041306019,0.028618299605554,50.));
#1823=CARTESIAN_POINT('',(-8.2000041306019,0.028618299605554,50.));
#1824=CARTESIAN_POINT('',(-8.2000041306019,0.028618299605554,0.));
#1825=CARTESIAN_POINT('Origin',(34.7999958693981,3.02861829960555,40.0000005960464));
#1826=CARTESIAN_POINT('',(44.2999958693981,3.02861829960555,47.));
#1827=CARTESIAN_POINT('Origin',(21.7999958693981,0.028618299605554,43.));
#1828=CARTESIAN_POINT('',(21.7999958693981,3.02861829960555,43.));
#1829=CARTESIAN_POINT('',(21.7999958693981,0.028618299605554,43.));
#1830=CARTESIAN_POINT('',(6.7999958693981,3.02861829960555,43.));
#1831=CARTESIAN_POINT('Origin',(21.7999958693981,0.028618299605554,37.));
#1832=CARTESIAN_POINT('',(21.7999958693981,3.02861829960555,37.));
#1833=CARTESIAN_POINT('',(21.7999958693981,0.028618299605554,37.));
#1834=CARTESIAN_POINT('',(21.7999958693981,3.02861829960555,18.5));
#1835=CARTESIAN_POINT('Origin',(27.0470138860859,0.028618299605554,37.));
#1836=CARTESIAN_POINT('',(27.0470138860859,3.02861829960555,37.));
#1837=CARTESIAN_POINT('',(27.0470138860859,0.028618299605554,37.));
#1838=CARTESIAN_POINT('',(9.42350487774202,3.02861829960555,37.));
#1839=CARTESIAN_POINT('Origin',(35.0000005215406,0.028618299605554,40.0000005960464));
#1840=CARTESIAN_POINT('Origin',(35.0000005215406,3.02861829960555,40.0000005960464));
#1841=CARTESIAN_POINT('Origin',(-0.200004130601887,127.028618299606,47.));
#1842=CARTESIAN_POINT('',(-5.20000413060189,127.028618299606,47.));
#1843=CARTESIAN_POINT('',(-0.200004130601887,127.028618299606,47.));
#1844=CARTESIAN_POINT('',(48.2999958693981,127.028618299606,47.));
#1845=CARTESIAN_POINT('',(-5.2000041306019,127.028618299606,0.));
#1846=CARTESIAN_POINT('',(-5.20000413060189,127.028618299606,23.5));
#1847=CARTESIAN_POINT('',(-5.20000413060189,127.028618299606,-5.));
#1848=CARTESIAN_POINT('',(-5.20000413060189,127.028618299606,47.));
#1849=CARTESIAN_POINT('',(-0.200004130601887,127.028618299606,-5.));
#1850=CARTESIAN_POINT('',(-0.200004130601887,127.028618299606,-5.));
#1851=CARTESIAN_POINT('',(-0.200004130601887,127.028618299606,47.));
#1852=CARTESIAN_POINT('Origin',(-0.200004130601887,132.028618299606,47.));
#1853=CARTESIAN_POINT('',(-0.200004130601887,132.028618299606,47.));
#1854=CARTESIAN_POINT('',(-0.200004130601883,99.7786182996055,47.));
#1855=CARTESIAN_POINT('',(-0.200004130601887,132.028618299606,-5.));
#1856=CARTESIAN_POINT('',(-0.200004130601887,132.028618299606,-5.));
#1857=CARTESIAN_POINT('',(-0.200004130601883,132.028618299606,0.));
#1858=CARTESIAN_POINT('',(-0.200004130601887,132.028618299606,47.));
#1859=CARTESIAN_POINT('',(-0.200004130601883,132.028618299606,23.5));
#1860=CARTESIAN_POINT('Origin',(-5.20000413060189,132.028618299606,47.));
#1861=CARTESIAN_POINT('',(-5.20000413060189,132.028618299606,0.));
#1862=CARTESIAN_POINT('',(149.299995869398,132.028618299606,0.));
#1863=CARTESIAN_POINT('',(-5.20000413060189,132.028618299606,-5.));
#1864=CARTESIAN_POINT('',(-5.20000413060189,132.028618299606,-5.));
#1865=CARTESIAN_POINT('',(-5.20000413060189,132.028618299606,47.));
#1866=CARTESIAN_POINT('Origin',(-5.20000413060189,127.028618299606,47.));
#1867=CARTESIAN_POINT('',(-5.2000041306019,101.278618299606,0.));
#1868=CARTESIAN_POINT('',(-5.20000413060189,127.028618299606,-5.));
#1869=CARTESIAN_POINT('Origin',(-2.70000413060189,129.528618299606,-5.));
#1870=CARTESIAN_POINT('Origin',(-5.20000413060189,135.028618299606,0.));
#1871=CARTESIAN_POINT('',(-5.20000413060188,8.02861829960555,47.));
#1872=CARTESIAN_POINT('',(-5.2000041306019,101.278618299606,47.));
#1873=CARTESIAN_POINT('',(-5.20000413060188,8.02861829960555,0.));
#1874=CARTESIAN_POINT('',(-5.2000041306019,8.02861829960555,23.5));
#1875=CARTESIAN_POINT('',(-5.2000041306019,101.278618299606,0.));
#1876=CARTESIAN_POINT('Origin',(-0.200004130601882,3.02861829960555,47.));
#1877=CARTESIAN_POINT('',(-5.2000041306019,3.02861829960555,0.));
#1878=CARTESIAN_POINT('',(-0.200004130601882,3.02861829960555,0.));
#1879=CARTESIAN_POINT('',(44.2999958693981,3.02861829960555,0.));
#1880=CARTESIAN_POINT('',(-5.20000413060188,3.02861829960555,-5.));
#1881=CARTESIAN_POINT('',(-5.20000413060188,3.02861829960555,47.));
#1882=CARTESIAN_POINT('',(-0.200004130601882,3.02861829960555,-5.));
#1883=CARTESIAN_POINT('',(-5.20000413060188,3.02861829960555,-5.));
#1884=CARTESIAN_POINT('',(-0.200004130601882,3.02861829960555,47.));
#1885=CARTESIAN_POINT('Origin',(-5.20000413060188,3.02861829960555,47.));
#1886=CARTESIAN_POINT('',(-5.2000041306019,101.278618299606,0.));
#1887=CARTESIAN_POINT('',(-5.20000413060188,8.02861829960555,-5.));
#1888=CARTESIAN_POINT('',(-5.20000413060188,8.02861829960555,47.));
#1889=CARTESIAN_POINT('',(-5.20000413060188,8.02861829960555,-5.));
#1890=CARTESIAN_POINT('Origin',(-0.200004130601882,8.02861829960555,47.));
#1891=CARTESIAN_POINT('',(-0.200004130601882,3.02861829960555,47.));
#1892=CARTESIAN_POINT('',(-0.200004130601882,8.02861829960555,47.));
#1893=CARTESIAN_POINT('',(-0.200004130601883,37.7786182996056,47.));
#1894=CARTESIAN_POINT('',(-0.200004130601882,3.02861829960555,23.5));
#1895=CARTESIAN_POINT('',(-0.200004130601882,8.02861829960555,-5.));
#1896=CARTESIAN_POINT('',(-0.200004130601882,3.02861829960555,-5.));
#1897=CARTESIAN_POINT('',(-0.200004130601882,8.02861829960555,47.));
#1898=CARTESIAN_POINT('Origin',(-5.20000413060188,8.02861829960555,47.));
#1899=CARTESIAN_POINT('',(45.7999958693981,8.02861829960555,47.));
#1900=CARTESIAN_POINT('',(-0.200004130601882,8.02861829960555,-5.));
#1901=CARTESIAN_POINT('Origin',(-2.70000413060188,5.52861829960555,-5.));
#1902=CARTESIAN_POINT('Origin',(-8.2000041306019,3.02861829960555,0.));
#1903=CARTESIAN_POINT('',(193.799995869398,3.02861829960556,47.));
#1904=CARTESIAN_POINT('',(44.2999958693981,3.02861829960555,47.));
#1905=CARTESIAN_POINT('',(193.799995869398,3.02861829960555,0.));
#1906=CARTESIAN_POINT('',(193.799995869398,3.02861829960555,23.5));
#1907=CARTESIAN_POINT('',(44.2999958693981,3.02861829960555,0.));
#1908=CARTESIAN_POINT('',(44.2999958693981,3.02861829960555,47.));
#1909=CARTESIAN_POINT('Origin',(96.7999958693981,67.5286182996055,47.));
#1910=CARTESIAN_POINT('',(193.799995869398,132.028618299606,47.));
#1911=CARTESIAN_POINT('',(149.299995869398,132.028618299606,47.));
#1912=CARTESIAN_POINT('',(193.799995869398,127.028618299606,47.));
#1913=CARTESIAN_POINT('',(193.799995869398,97.2786182996055,47.));
#1914=CARTESIAN_POINT('',(198.799995869398,127.028618299606,47.));
#1915=CARTESIAN_POINT('',(147.799995869398,127.028618299606,47.));
#1916=CARTESIAN_POINT('',(198.799995869398,8.02861829960555,47.));
#1917=CARTESIAN_POINT('',(198.799995869398,33.7786182996056,47.));
#1918=CARTESIAN_POINT('',(193.799995869398,8.02861829960555,47.));
#1919=CARTESIAN_POINT('',(145.299995869398,8.02861829960555,47.));
#1920=CARTESIAN_POINT('',(193.799995869398,35.2786182996056,47.));
#1921=CARTESIAN_POINT('',(174.799995869398,20.0286182996055,47.));
#1922=CARTESIAN_POINT('',(174.799995869398,109.028618299606,47.));
#1923=CARTESIAN_POINT('',(174.799995869398,88.2786182996055,47.));
#1924=CARTESIAN_POINT('',(18.7999958693981,109.028618299606,47.));
#1925=CARTESIAN_POINT('',(57.7999958693981,109.028618299606,47.));
#1926=CARTESIAN_POINT('',(18.7999958693981,20.0286182996055,47.));
#1927=CARTESIAN_POINT('',(18.7999958693981,43.7786182996055,47.));
#1928=CARTESIAN_POINT('',(135.799995869398,20.0286182996055,47.));
#1929=CARTESIAN_POINT('',(13.7999958693981,15.5286182996055,47.));
#1930=CARTESIAN_POINT('Origin',(9.79999586939811,15.5286182996055,47.));
#1931=CARTESIAN_POINT('',(13.7999958693981,117.028618299606,47.));
#1932=CARTESIAN_POINT('Origin',(9.79999586939811,117.028618299606,47.));
#1933=CARTESIAN_POINT('',(187.799995869398,117.028618299606,47.));
#1934=CARTESIAN_POINT('Origin',(183.799995869398,117.028618299606,47.));
#1935=CARTESIAN_POINT('',(187.799995869398,15.5286182996055,47.));
#1936=CARTESIAN_POINT('Origin',(183.799995869398,15.5286182996055,47.));
#1937=CARTESIAN_POINT('Origin',(193.799995869398,132.028618299606,47.));
#1938=CARTESIAN_POINT('',(198.799995869398,132.028618299606,0.));
#1939=CARTESIAN_POINT('',(193.799995869398,132.028618299606,0.));
#1940=CARTESIAN_POINT('',(149.299995869398,132.028618299606,0.));
#1941=CARTESIAN_POINT('',(198.799995869398,132.028618299606,-5.));
#1942=CARTESIAN_POINT('',(198.799995869398,132.028618299606,47.));
#1943=CARTESIAN_POINT('',(193.799995869398,132.028618299606,-5.));
#1944=CARTESIAN_POINT('',(198.799995869398,132.028618299606,-5.));
#1945=CARTESIAN_POINT('',(193.799995869398,132.028618299606,47.));
#1946=CARTESIAN_POINT('Origin',(198.799995869398,132.028618299606,47.));
#1947=CARTESIAN_POINT('',(198.799995869398,127.028618299606,0.));
#1948=CARTESIAN_POINT('',(198.799995869398,33.7786182996056,0.));
#1949=CARTESIAN_POINT('',(198.799995869398,127.028618299606,-5.));
#1950=CARTESIAN_POINT('',(198.799995869398,127.028618299606,47.));
#1951=CARTESIAN_POINT('',(198.799995869398,127.028618299606,-5.));
#1952=CARTESIAN_POINT('Origin',(193.799995869398,127.028618299606,47.));
#1953=CARTESIAN_POINT('',(193.799995869398,132.028618299606,23.5));
#1954=CARTESIAN_POINT('',(193.799995869398,127.028618299606,-5.));
#1955=CARTESIAN_POINT('',(193.799995869398,132.028618299606,-5.));
#1956=CARTESIAN_POINT('',(193.799995869398,127.028618299606,47.));
#1957=CARTESIAN_POINT('Origin',(198.799995869398,127.028618299606,47.));
#1958=CARTESIAN_POINT('',(193.799995869398,127.028618299606,-5.));
#1959=CARTESIAN_POINT('',(198.799995869398,127.028618299606,23.5));
#1960=CARTESIAN_POINT('Origin',(196.299995869398,129.528618299606,-5.));
#1961=CARTESIAN_POINT('Origin',(201.799995869398,132.028618299606,0.));
#1962=CARTESIAN_POINT('',(149.299995869398,132.028618299606,0.));
#1963=CARTESIAN_POINT('Origin',(198.799995869398,8.02861829960555,47.));
#1964=CARTESIAN_POINT('',(198.799995869398,3.02861829960555,0.));
#1965=CARTESIAN_POINT('',(198.799995869398,8.02861829960555,0.));
#1966=CARTESIAN_POINT('',(198.799995869398,33.7786182996056,0.));
#1967=CARTESIAN_POINT('',(198.799995869398,3.02861829960555,-5.));
#1968=CARTESIAN_POINT('',(198.799995869398,3.02861829960555,47.));
#1969=CARTESIAN_POINT('',(198.799995869398,8.02861829960555,-5.));
#1970=CARTESIAN_POINT('',(198.799995869398,8.02861829960555,-5.));
#1971=CARTESIAN_POINT('',(198.799995869398,8.02861829960555,47.));
#1972=CARTESIAN_POINT('Origin',(193.799995869398,8.02861829960555,47.));
#1973=CARTESIAN_POINT('',(198.799995869398,8.02861829960555,23.5));
#1974=CARTESIAN_POINT('',(193.799995869398,8.02861829960555,-5.));
#1975=CARTESIAN_POINT('',(193.799995869398,8.02861829960555,-5.));
#1976=CARTESIAN_POINT('',(193.799995869398,8.02861829960555,47.));
#1977=CARTESIAN_POINT('Origin',(193.799995869398,3.02861829960556,47.));
#1978=CARTESIAN_POINT('',(193.799995869398,3.02861829960556,-5.));
#1979=CARTESIAN_POINT('',(193.799995869398,3.02861829960556,-5.));
#1980=CARTESIAN_POINT('',(193.799995869398,3.02861829960556,47.));
#1981=CARTESIAN_POINT('Origin',(198.799995869398,3.02861829960555,47.));
#1982=CARTESIAN_POINT('',(44.2999958693981,3.02861829960555,0.));
#1983=CARTESIAN_POINT('',(198.799995869398,3.02861829960555,-5.));
#1984=CARTESIAN_POINT('Origin',(196.299995869398,5.52861829960555,-5.));
#1985=CARTESIAN_POINT('Origin',(175.299995869398,88.2786182996055,49.5));
#1986=CARTESIAN_POINT('',(175.799995869398,19.0286182996056,50.));
#1987=CARTESIAN_POINT('',(175.799995869398,110.028618299606,50.));
#1988=CARTESIAN_POINT('',(175.799995869398,88.2786182996055,50.));
#1989=CARTESIAN_POINT('',(174.799995869398,109.028618299606,49.));
#1990=CARTESIAN_POINT('',(175.799995869398,110.028618299606,50.));
#1991=CARTESIAN_POINT('',(174.799995869398,20.0286182996055,49.));
#1992=CARTESIAN_POINT('',(174.799995869398,88.2786182996055,49.));
#1993=CARTESIAN_POINT('',(174.799995869398,20.0286182996055,49.));
#1994=CARTESIAN_POINT('Origin',(57.7999958693981,109.528618299606,49.5));
#1995=CARTESIAN_POINT('',(17.7999958693981,110.028618299606,50.));
#1996=CARTESIAN_POINT('',(57.7999958693981,110.028618299606,50.));
#1997=CARTESIAN_POINT('',(18.7999958693981,109.028618299606,49.));
#1998=CARTESIAN_POINT('',(17.7999958693981,110.028618299606,50.));
#1999=CARTESIAN_POINT('',(57.7999958693981,109.028618299606,49.));
#2000=CARTESIAN_POINT('Origin',(18.2999958693981,43.7786182996055,49.5));
#2001=CARTESIAN_POINT('',(18.7999958693981,20.0286182996055,49.));
#2002=CARTESIAN_POINT('',(18.7999958693981,43.7786182996055,49.));
#2003=CARTESIAN_POINT('',(17.7999958693981,19.0286182996055,50.));
#2004=CARTESIAN_POINT('',(17.7999958693981,43.7786182996055,50.));
#2005=CARTESIAN_POINT('',(17.7999958693981,19.0286182996055,50.));
#2006=CARTESIAN_POINT('Origin',(135.799995869398,19.5286182996055,49.5));
#2007=CARTESIAN_POINT('',(135.799995869398,19.0286182996055,50.));
#2008=CARTESIAN_POINT('',(135.799995869398,20.0286182996055,49.));
#2009=CARTESIAN_POINT('Origin',(174.799995869398,20.0286182996055,50.));
#2010=CARTESIAN_POINT('',(174.799995869398,20.0286182996055,50.));
#2011=CARTESIAN_POINT('',(18.7999958693981,20.0286182996055,50.));
#2012=CARTESIAN_POINT('Origin',(174.799995869398,109.028618299606,50.));
#2013=CARTESIAN_POINT('',(174.799995869398,109.028618299606,50.));
#2014=CARTESIAN_POINT('Origin',(96.7999958693981,67.5286182996055,50.));
#2015=CARTESIAN_POINT('',(201.799995869398,135.028618299606,50.));
#2016=CARTESIAN_POINT('',(201.799995869398,0.028618299605554,50.));
#2017=CARTESIAN_POINT('',(-8.20000413060189,135.028618299606,50.));
#2018=CARTESIAN_POINT('',(201.799995869398,135.028618299606,50.));
#2019=CARTESIAN_POINT('',(-8.20000413060189,135.028618299606,50.));
#2020=CARTESIAN_POINT('Origin',(9.79999586939811,117.028618299606,45.6008606190276));
#2021=CARTESIAN_POINT('',(11.7999958693981,117.028618299606,45.));
#2022=CARTESIAN_POINT('Origin',(9.79999586939811,117.028618299606,45.));
#2023=CARTESIAN_POINT('',(9.79999586939811,117.028618299606,46.2017212380551));
#2024=CARTESIAN_POINT('',(10.7999958693981,117.028618299606,45.6008606190276));
#2025=CARTESIAN_POINT('Origin',(9.79999586939811,117.028618299606,43.));
#2026=CARTESIAN_POINT('',(11.7999958693981,117.028618299606,41.));
#2027=CARTESIAN_POINT('Origin',(9.79999586939811,117.028618299606,41.));
#2028=CARTESIAN_POINT('',(11.7999958693981,117.028618299606,43.));
#2029=CARTESIAN_POINT('Origin',(183.799995869398,117.028618299606,45.6008606190276));
#2030=CARTESIAN_POINT('',(185.799995869398,117.028618299606,45.));
#2031=CARTESIAN_POINT('Origin',(183.799995869398,117.028618299606,45.));
#2032=CARTESIAN_POINT('',(183.799995869398,117.028618299606,46.2017212380551));
#2033=CARTESIAN_POINT('',(184.799995869398,117.028618299606,45.6008606190276));
#2034=CARTESIAN_POINT('Origin',(183.799995869398,117.028618299606,43.));
#2035=CARTESIAN_POINT('',(185.799995869398,117.028618299606,41.));
#2036=CARTESIAN_POINT('Origin',(183.799995869398,117.028618299606,41.));
#2037=CARTESIAN_POINT('',(185.799995869398,117.028618299606,43.));
#2038=CARTESIAN_POINT('Origin',(183.799995869398,15.5286182996055,45.6008606190276));
#2039=CARTESIAN_POINT('',(185.799995869398,15.5286182996055,45.));
#2040=CARTESIAN_POINT('Origin',(183.799995869398,15.5286182996055,45.));
#2041=CARTESIAN_POINT('',(183.799995869398,15.5286182996055,46.2017212380551));
#2042=CARTESIAN_POINT('',(184.799995869398,15.5286182996055,45.6008606190276));
#2043=CARTESIAN_POINT('Origin',(183.799995869398,15.5286182996055,43.));
#2044=CARTESIAN_POINT('',(185.799995869398,15.5286182996055,41.));
#2045=CARTESIAN_POINT('Origin',(183.799995869398,15.5286182996055,41.));
#2046=CARTESIAN_POINT('',(185.799995869398,15.5286182996055,43.));
#2047=CARTESIAN_POINT('Origin',(9.79999586939811,15.5286182996055,45.6008606190276));
#2048=CARTESIAN_POINT('',(11.7999958693981,15.5286182996055,45.));
#2049=CARTESIAN_POINT('Origin',(9.79999586939811,15.5286182996055,45.));
#2050=CARTESIAN_POINT('',(9.79999586939811,15.5286182996055,46.2017212380551));
#2051=CARTESIAN_POINT('',(10.7999958693981,15.5286182996055,45.6008606190276));
#2052=CARTESIAN_POINT('Origin',(9.79999586939811,15.5286182996055,43.));
#2053=CARTESIAN_POINT('',(11.7999958693981,15.5286182996055,41.));
#2054=CARTESIAN_POINT('Origin',(9.79999586939811,15.5286182996055,41.));
#2055=CARTESIAN_POINT('',(11.7999958693981,15.5286182996055,43.));
#2056=CARTESIAN_POINT('Origin',(183.799995869398,15.5286182996055,50.));
#2057=CARTESIAN_POINT('',(187.799995869398,15.5286182996055,41.));
#2058=CARTESIAN_POINT('Origin',(183.799995869398,15.5286182996055,41.));
#2059=CARTESIAN_POINT('',(187.799995869398,15.5286182996055,50.));
#2060=CARTESIAN_POINT('Origin',(183.799995869398,15.5286182996055,41.));
#2061=CARTESIAN_POINT('Origin',(183.799995869398,117.028618299606,50.));
#2062=CARTESIAN_POINT('',(187.799995869398,117.028618299606,41.));
#2063=CARTESIAN_POINT('Origin',(183.799995869398,117.028618299606,41.));
#2064=CARTESIAN_POINT('',(187.799995869398,117.028618299606,50.));
#2065=CARTESIAN_POINT('Origin',(183.799995869398,117.028618299606,41.));
#2066=CARTESIAN_POINT('Origin',(9.79999586939811,117.028618299606,50.));
#2067=CARTESIAN_POINT('',(13.7999958693981,117.028618299606,41.));
#2068=CARTESIAN_POINT('Origin',(9.79999586939811,117.028618299606,41.));
#2069=CARTESIAN_POINT('',(13.7999958693981,117.028618299606,50.));
#2070=CARTESIAN_POINT('Origin',(9.79999586939811,117.028618299606,41.));
#2071=CARTESIAN_POINT('Origin',(9.79999586939811,15.5286182996055,50.));
#2072=CARTESIAN_POINT('',(13.7999958693981,15.5286182996055,41.));
#2073=CARTESIAN_POINT('Origin',(9.79999586939811,15.5286182996055,41.));
#2074=CARTESIAN_POINT('',(13.7999958693981,15.5286182996055,50.));
#2075=CARTESIAN_POINT('Origin',(9.79999586939811,15.5286182996055,41.));
#2076=CARTESIAN_POINT('Origin',(18.7999958693981,109.028618299606,50.));
#2077=CARTESIAN_POINT('',(18.7999958693981,109.028618299606,50.));
#2078=CARTESIAN_POINT('Origin',(18.7999958693981,20.0286182996055,50.));
#2079=CARTESIAN_POINT('Origin',(198.799995869398,0.028618299605554,0.));
#2080=CARTESIAN_POINT('',(198.799995869398,33.7786182996056,0.));
#2081=CARTESIAN_POINT('Origin',(-8.20000413060189,135.028618299606,0.));
#2082=CARTESIAN_POINT('',(-8.20000413060189,135.028618299606,0.));
#2083=CARTESIAN_POINT('',(-8.20000413060189,135.028618299606,0.));
#2084=CARTESIAN_POINT('',(-8.20000413060189,135.028618299606,0.));
#2085=CARTESIAN_POINT('Origin',(201.799995869398,135.028618299606,0.));
#2086=CARTESIAN_POINT('',(201.799995869398,135.028618299606,0.));
#2087=CARTESIAN_POINT('',(201.799995869398,135.028618299606,0.));
#2088=CARTESIAN_POINT('',(201.799995869398,135.028618299606,0.));
#2089=CARTESIAN_POINT('Origin',(201.799995869398,0.028618299605554,0.));
#2090=CARTESIAN_POINT('',(201.799995869398,0.028618299605554,0.));
#2091=CARTESIAN_POINT('Origin',(96.7999958693981,67.5286182996055,0.));
#2092=UNCERTAINTY_MEASURE_WITH_UNIT(LENGTH_MEASURE(0.01),#2096,
'DISTANCE_ACCURACY_VALUE',
'Maximum model space distance between geometric entities at asserted c
onnectivities');
#2093=UNCERTAINTY_MEASURE_WITH_UNIT(LENGTH_MEASURE(0.01),#2096,
'DISTANCE_ACCURACY_VALUE',
'Maximum model space distance between geometric entities at asserted c
onnectivities');
#2094=(
GEOMETRIC_REPRESENTATION_CONTEXT(3)
GLOBAL_UNCERTAINTY_ASSIGNED_CONTEXT((#2092))
GLOBAL_UNIT_ASSIGNED_CONTEXT((#2096,#2098,#2099))
REPRESENTATION_CONTEXT('','3D')
);
#2095=(
GEOMETRIC_REPRESENTATION_CONTEXT(3)
GLOBAL_UNCERTAINTY_ASSIGNED_CONTEXT((#2093))
GLOBAL_UNIT_ASSIGNED_CONTEXT((#2096,#2098,#2099))
REPRESENTATION_CONTEXT('','3D')
);
#2096=(
LENGTH_UNIT()
NAMED_UNIT(*)
SI_UNIT(.MILLI.,.METRE.)
);
#2097=(
LENGTH_UNIT()
NAMED_UNIT(*)
SI_UNIT($,.METRE.)
);
#2098=(
NAMED_UNIT(*)
PLANE_ANGLE_UNIT()
SI_UNIT($,.RADIAN.)
);
#2099=(
NAMED_UNIT(*)
SI_UNIT($,.STERADIAN.)
SOLID_ANGLE_UNIT()
);
#2100=SHAPE_DEFINITION_REPRESENTATION(#2101,#2102);
#2101=PRODUCT_DEFINITION_SHAPE('',$,#2104);
#2102=SHAPE_REPRESENTATION('',(#1254),#2094);
#2103=PRODUCT_DEFINITION_CONTEXT('part definition',#2108,'design');
#2104=PRODUCT_DEFINITION('2026-02-13-22-58-06-352',
'antenna relay front panel with cf card cutout',#2105,#2103);
#2105=PRODUCT_DEFINITION_FORMATION('',$,#2110);
#2106=PRODUCT_RELATED_PRODUCT_CATEGORY(
'antenna relay front panel with cf card cutout',
'antenna relay front panel with cf card cutout',(#2110));
#2107=APPLICATION_PROTOCOL_DEFINITION('international standard',
'automotive_design',2009,#2108);
#2108=APPLICATION_CONTEXT(
'Core Data for Automotive Mechanical Design Process');
#2109=PRODUCT_CONTEXT('part definition',#2108,'mechanical');
#2110=PRODUCT('2026-02-13-22-58-06-352',
'antenna relay front panel with cf card cutout',$,(#2109));
#2111=PRESENTATION_STYLE_ASSIGNMENT((#2112));
#2112=SURFACE_STYLE_USAGE(.BOTH.,#2113);
#2113=SURFACE_SIDE_STYLE('',(#2114));
#2114=SURFACE_STYLE_FILL_AREA(#2115);
#2115=FILL_AREA_STYLE('Steel - Satin',(#2116));
#2116=FILL_AREA_STYLE_COLOUR('Steel - Satin',#2117);
#2117=COLOUR_RGB('Steel - Satin',0.627450980392157,0.627450980392157,0.627450980392157);
ENDSEC;
END-ISO-10303-21;
